<svg xmlns="http://www.w3.org/2000/svg" version="1.1" xmlns:xlink="http://www.w3.org/1999/xlink" xmlns:svgjs="http://svgjs.com/svgjs" width="512" height="512" x="0" y="0" viewBox="0 0 512 512" style="enable-background:new 0 0 512 512" xml:space="preserve" class=""><g><g xmlns="http://www.w3.org/2000/svg"><g><g><g><g><g><g><circle cx="256" cy="256" fill="#5c5c5c" r="256" data-original="#ff6c52" class=""></circle></g></g></g></g></g></g><path d="m512 256c0-16.19-1.503-32.03-4.377-47.387l-120.426-120.867-51.07 168.807-167.221-167.222-83.217 76.09 147.669 147.669-147.726 72.137 122.258 122.259c15.582 2.963 31.665 4.514 48.11 4.514 141.385 0 256-114.615 256-256z" fill="#000000" data-original="#f92814" class=""></path><g><path d="m166.79 383.573c-.544-.544-1.104-1.062-1.679-1.555l216.907-216.907c.492.574 1.01 1.135 1.555 1.679 11.886 11.886 31.441 11.43 42.738-1.369 9.654-10.937 9.68-27.684.057-38.649-8.649-9.855-22.178-12.44-33.387-7.754 4.686-11.209 2.101-24.738-7.754-33.387-10.964-9.623-27.712-9.596-38.649.057-12.799 11.297-13.255 30.852-1.369 42.738.544.544 1.104 1.062 1.679 1.555l-216.907 216.908c-.492-.574-1.01-1.135-1.555-1.679-11.886-11.886-31.441-11.43-42.738 1.369-9.654 10.937-9.68 27.684-.057 38.649 8.649 9.855 22.178 12.44 33.387 7.754-4.685 11.209-2.101 24.738 7.754 33.387 10.964 9.622 27.712 9.596 38.649-.057 12.799-11.298 13.255-30.853 1.369-42.739z" fill="#dce1eb" data-original="#dce1eb"></path></g><g><path d="m426.369 126.773c-8.649-9.855-22.178-12.44-33.387-7.754 4.686-11.209 2.101-24.738-7.754-33.387-10.964-9.623-27.712-9.597-38.648.057-12.799 11.297-13.255 30.852-1.369 42.738.544.544 1.104 1.062 1.678 1.555l-90.889 90.888v70.26l126.019-126.019c.492.574 1.01 1.134 1.554 1.679 11.886 11.886 31.441 11.43 42.738-1.369 9.654-10.937 9.68-27.684.058-38.648z" fill="#bec3d2" data-original="#bec3d2" class=""></path></g><g><path d="m383.573 345.209c-.544.544-1.062 1.104-1.555 1.679l-216.907-216.907c.574-.493 1.135-1.011 1.679-1.555 11.886-11.886 11.43-31.441-1.369-42.738-10.937-9.654-27.684-9.68-38.649-.057-9.855 8.649-12.44 22.178-7.754 33.387-11.209-4.686-24.738-2.101-33.387 7.754-9.622 10.964-9.596 27.712.057 38.649 11.297 12.799 30.852 13.255 42.738 1.369.544-.544 1.062-1.104 1.555-1.679l216.907 216.907c-.574.493-1.135 1.011-1.679 1.555-11.886 11.886-11.43 31.441 1.369 42.738 10.937 9.654 27.684 9.68 38.649.057 9.855-8.649 12.44-22.178 7.754-33.387 11.209 4.685 24.738 2.101 33.387-7.755 9.622-10.964 9.596-27.712-.057-38.649-11.297-12.798-30.852-13.254-42.738-1.368z" fill="#dce1eb" data-original="#dce1eb"></path></g><g><path d="m426.311 346.578c-11.297-12.799-30.852-13.255-42.738-1.369-.544.544-1.062 1.104-1.554 1.679l-126.019-126.018v70.261l90.888 90.888c-.574.493-1.135 1.011-1.678 1.555-11.886 11.886-11.43 31.441 1.369 42.738 10.937 9.653 27.684 9.68 38.648.057 9.855-8.649 12.44-22.178 7.754-33.387 11.209 4.686 24.738 2.101 33.387-7.754 9.623-10.965 9.597-27.713-.057-38.65z" fill="#bec3d2" data-original="#bec3d2" class=""></path></g><g><path d="m382.255 237.445c0-69.729-56.526-101.289-126.255-101.289s-126.255 31.56-126.255 101.289c0 38.053 16.834 72.173 43.462 95.321v21.745c0 15.876 12.87 28.746 28.746 28.746h108.093c15.876 0 28.746-12.87 28.746-28.746v-21.745c26.629-23.148 43.463-57.268 43.463-95.321z" fill="#ffffff" data-original="#ffffff"></path></g><g><path d="m256 136.156v247.102h54.046c15.876 0 28.747-12.87 28.747-28.746v-21.745c26.628-23.148 43.462-57.269 43.462-95.321 0-69.73-56.526-101.29-126.255-101.29z" fill="#e9edf5" data-original="#e9edf5" class=""></path></g><g><g><path d="m241.465 274.598c-.016.565-.043 1.132-.082 1.701-1.359 19.7-17.319 35.661-37.019 37.019-.569.039-1.136.067-1.701.082-29.914.827-45.058-35.961-23.897-57.121l5.579-5.579c21.159-21.16 57.948-6.016 57.12 23.898z" fill="#555a66" data-original="#555a66" class=""></path></g><g><path d="m270.535 274.598c.016.565.043 1.132.082 1.701 1.359 19.7 17.319 35.661 37.019 37.019.569.039 1.137.067 1.701.082 29.914.827 45.058-35.961 23.897-57.121l-5.579-5.579c-21.159-21.16-57.948-6.016-57.12 23.898z" fill="#333940" data-original="#333940" class=""></path></g></g><g><g><path d="m205.189 348.833h22.544v34.425h-22.544z" fill="#cdd2e1" data-original="#cdd2e1"></path></g><g><path d="m284.268 348.833h22.544v34.425h-22.544z" fill="#afb4c8" data-original="#afb4c8"></path></g></g><g><path d="m244.728 348.833h22.544v34.425h-22.544z" fill="#cdd2e1" data-original="#cdd2e1"></path></g><g><path d="m256 348.832h11.272v34.425h-11.272z" fill="#afb4c8" data-original="#afb4c8"></path></g></g></g></svg>