<?xml version="1.0" encoding="utf-8"?>
<!-- Generator: Adobe Illustrator 25.0.0, SVG Export Plug-In . SVG Version: 6.00 Build 0)  -->
<svg version="1.1" id="Camada_1" xmlns="http://www.w3.org/2000/svg" xmlns:xlink="http://www.w3.org/1999/xlink" x="0px" y="0px"
	 viewBox="0 0 2619.9 1834.8" style="enable-background:new 0 0 2619.9 1834.8;" xml:space="preserve">
<style type="text/css">
	.st0{fill:url(#SVGID_1_);}
	.st1{fill:#FFD83B;}
	.st2{fill:#F3C432;}
	.st3{fill:#E8AF2A;}
	.st4{fill:#ECDCFF;}
	.st5{fill:#C6B4F1;}
	.st6{fill:#D5B3FF;}
	.st7{fill:#A195FD;}
	.st8{fill:#8160FF;}
	.st9{fill:#694E9A;}
	.st10{fill:#553881;}
	.st11{fill:#A37BC6;}
	.st12{fill:url(#SVGID_2_);}
</style>
<linearGradient id="SVGID_1_" gradientUnits="userSpaceOnUse" x1="0" y1="2090.6001" x2="2619.9316" y2="2090.6001" gradientTransform="matrix(1 0 0 -1 0 3008)">
	<stop  offset="0" style="stop-color:#06116A"/>
	<stop  offset="1.118439e-02" style="stop-color:#061169"/>
	<stop  offset="0.2563" style="stop-color:#06114D"/>
	<stop  offset="0.5032" style="stop-color:#061139"/>
	<stop  offset="0.7507" style="stop-color:#06112D"/>
	<stop  offset="1" style="stop-color:#061129"/>
</linearGradient>
<path class="st0" d="M2588.2,1834.8H0V0c0.7,154.6,239.6,1017.2,1235.4,588.2c76.6-33,150-73.7,219.7-120.4
	c224.1-150,152.1,131.8,74.6,272.7c-42.7,79.8,50.2-15.6,56-18.8c101.7-56.8-388.3,1453.5,674.1,397.7
	c182.8-117.2-7.6,381.6-6,402.5c0.2,2.9,0.3,5.9-0.2,8.8C2216.9,1728.2,2753.6,1171.6,2588.2,1834.8z"/>
<g>
	
		<image style="overflow:visible;opacity:0.76;" width="1094" height="1093" xlink:href="AA964DC0.png"  transform="matrix(1 0 0 1 342 556.8)">
	</image>
	<g>
		<g>
			<circle class="st1" cx="889.2" cy="1103.5" r="348.3"/>
			<g>
				<ellipse class="st2" cx="670.9" cy="1038.3" rx="65.3" ry="65.3"/>
				<ellipse class="st2" cx="916.6" cy="877.6" rx="48.5" ry="48.5"/>
				<ellipse class="st2" cx="883.1" cy="1108.8" rx="42.7" ry="42.7"/>
				<circle class="st2" cx="1000.4" cy="1170.5" r="17.9"/>
				<circle class="st2" cx="738.8" cy="1216" r="17.9"/>
				<path class="st2" d="M836.1,759.6c60.9,18.3,117.6,53.1,162.4,104.7c126.2,145.1,110.8,365.1-34.3,491.3
					c-51.5,44.8-112.5,71.4-175.4,81.1c110.6,33.2,235.3,11.1,328.9-70.3c145.2-126.2,160.5-346.2,34.3-491.3
					C1070.7,781.4,950.3,742.1,836.1,759.6z"/>
			</g>
			<circle class="st3" cx="1080.1" cy="1307" r="24"/>
			<ellipse class="st2" cx="869.3" cy="1284.5" rx="35.6" ry="35.6"/>
			<circle class="st3" cx="1127.2" cy="1036.5" r="35.6"/>
		</g>
	</g>
</g>
<g>
	<g>
		<g>
			<g>
				<path class="st4" d="M532.8,1278.8h289.3V1690H532.8V1278.8z"/>
				<path class="st5" d="M677.3,1278.8h144.8V1690H677.3V1278.8z"/>
				<path class="st6" d="M822.1,1278.8H532.8l144.6-274.1l0.1-0.2L822.1,1278.8z"/>
				<path class="st7" d="M822.1,1278.8H602.6l74.8-274.1v-0.2L822.1,1278.8z"/>
				<path class="st8" d="M822.1,1278.8H677.3v-274.1l0.1-0.2L822.1,1278.8z"/>
				<path class="st9" d="M754.7,1479.3v59.2H600.2v-59.2c0-41.2,34.5-74.6,77.1-74.6h0.1C720.1,1404.7,754.7,1438.1,754.7,1479.3
					L754.7,1479.3z"/>
				<path class="st10" d="M754.7,1479.3v59.2h-77.4v-133.9h0.1C720.1,1404.7,754.7,1438.1,754.7,1479.3L754.7,1479.3z"/>
				<path class="st4" d="M968,1635.4v199.4H386.9v-199.4c0-4.3,3.6-7.9,8.2-7.9h48.2c4.5,0,8.2,3.5,8.2,7.9v54.5H516v-54.5
					c0-4.3,3.6-7.9,8.1-7.9h48.3c4.5,0,8.1,3.5,8.1,7.9v54.5h64.6v-54.5c0-4.3,3.6-7.9,8.1-7.9h48.3c4.5,0,8.2,3.5,8.2,7.9v54.5
					h64.6v-54.5c0-4.3,3.6-7.9,8.2-7.9h48.3c4.5,0,8.1,3.5,8.1,7.9v54.5h64.6v-54.5c0-4.3,3.6-7.9,8.1-7.9h48.3
					C964.4,1627.6,968,1631.1,968,1635.4z"/>
				<path class="st5" d="M968,1635.4v199.4H677.3v-207.2h24.3c4.5,0,8.2,3.5,8.2,7.9v54.5h64.6v-54.5c0-4.3,3.6-7.9,8.2-7.9h48.3
					c4.5,0,8.1,3.5,8.1,7.9v54.5h64.6v-54.5c0-4.3,3.6-7.9,8.1-7.9H960C964.4,1627.6,968,1631.1,968,1635.4z"/>
				<path class="st7" d="M772.9,1522.8v31.5c0,5-4.2,9-9.3,9H591.4c-5.2,0-9.3-4-9.3-9v-31.5c0-5,4.2-9,9.3-9h172.2
					C768.7,1513.8,772.9,1517.8,772.9,1522.8z"/>
				<path class="st8" d="M772.9,1522.8v31.5c0,5-4.2,9-9.3,9h-86.2v-49.5h86.2C768.7,1513.8,772.9,1517.8,772.9,1522.8L772.9,1522.8
					z"/>
				<path class="st6" d="M850.7,1289v41.2c0,5.6-4.7,10.2-10.5,10.2H514.7c-5.8,0-10.5-4.5-10.5-10.2V1289c0-5.6,4.7-10.2,10.5-10.2
					h325.4C846,1278.8,850.7,1283.3,850.7,1289z"/>
				<path class="st7" d="M968,1635.4v116.9H386.9v-116.9c0-4.3,3.6-7.9,8.2-7.9h48.3c4.5,0,8.2,3.5,8.2,7.9v54.5H516v-54.5
					c0-4.3,3.6-7.9,8.1-7.9h48.3c4.5,0,8.1,3.5,8.1,7.9v54.5h64.6v-54.5c0-4.3,3.6-7.9,8.1-7.9h48.3c4.5,0,8.2,3.5,8.2,7.9v54.5
					h64.6v-54.5c0-4.3,3.6-7.9,8.2-7.9h48.3c4.5,0,8.2,3.5,8.2,7.9v54.5h64.6v-54.5c0-4.3,3.6-7.9,8.1-7.9H960
					C964.4,1627.6,968,1631.1,968,1635.4L968,1635.4z"/>
				<path class="st4" d="M413.7,1331.2v155.5l-18.1,45.1l-1.2,3l-7.6,18.9v281.2h-212v-280.3l-27.1-67.9v-155.5
					c0-2.6,2.2-4.7,4.8-4.7h28.4c2.7,0,4.8,2.1,4.8,4.7v32.1h38v-32.1c0-2.6,2.2-4.7,4.8-4.7H257c2.6,0,4.8,2.1,4.8,4.7v32.1h38
					v-32.1c0-0.2,0-0.3,0-0.4v-0.1c0-0.1,0-0.3,0.1-0.4c0-0.1,0-0.2,0.1-0.3c0-0.1,0.1-0.2,0.1-0.3c0-0.1,0.1-0.2,0.1-0.3v-0.1
					c0-0.1,0.1-0.2,0.1-0.2c0.1-0.1,0.1-0.2,0.2-0.3v-0.1c0.1-0.2,0.3-0.4,0.4-0.5c0-0.1,0.1-0.1,0.2-0.2c0.9-0.8,2.1-1.4,3.4-1.4
					h28.4c0.1,0,0.3,0,0.4,0s0.3,0,0.4,0c0.3,0.1,0.6,0.1,0.8,0.2c0.1,0,0.1,0,0.2,0.1s0.3,0.1,0.4,0.2s0.3,0.2,0.4,0.2l0,0
					c0.4,0.3,0.7,0.6,1,0.9c0.1,0.1,0.2,0.3,0.3,0.4c0.2,0.3,0.4,0.6,0.5,1c0,0.1,0.1,0.3,0.1,0.4s0,0.2,0.1,0.2v0.1
					c0,0.1,0,0.2,0.1,0.4c0,0.2,0,0.3,0,0.5v32.1h38v-32.1c0-0.2,0-0.3,0-0.5c0-0.1,0-0.2,0.1-0.4v-0.1c0-0.3,0.2-0.6,0.3-0.9
					c0.1-0.2,0.1-0.3,0.2-0.5c0.1-0.1,0.1-0.2,0.2-0.3c0.2-0.2,0.4-0.5,0.6-0.7c0.1-0.1,0.2-0.2,0.3-0.3c0.1-0.1,0.2-0.2,0.4-0.3
					l0,0c0.1-0.1,0.2-0.2,0.4-0.2c0.1-0.1,0.3-0.1,0.4-0.2c0.1,0,0.1-0.1,0.2-0.1c0.3-0.1,0.5-0.2,0.8-0.2c0.1,0,0.1,0,0.2,0
					c0.2,0,0.4,0,0.6,0h28.4c0.3,0,0.6,0,0.9,0.1c0.1,0,0.2,0.1,0.4,0.1c0.1,0,0.1,0,0.2,0s0.2,0.1,0.3,0.1h0.1
					c0.1,0,0.2,0.1,0.3,0.2c0.1,0.1,0.3,0.1,0.4,0.2c0,0,0.1,0.1,0.2,0.1c0.1,0.1,0.2,0.1,0.3,0.2c0,0,0.1,0,0.1,0.1l0,0
					c0.1,0.1,0.1,0.1,0.2,0.2s0.2,0.1,0.2,0.2c0.1,0.1,0.2,0.2,0.2,0.2c0.1,0.1,0.1,0.1,0.1,0.2c0.1,0.1,0.2,0.2,0.2,0.3
					c0,0.1,0.1,0.1,0.1,0.2c0.2,0.4,0.3,0.8,0.4,1.2c0,0.2,0.1,0.3,0.1,0.4l0,0c0,0.1,0,0.2,0,0.3c0,0,0,0,0,0.1
					C413.7,1331,413.7,1331.1,413.7,1331.2z"/>
				<path class="st5" d="M413.7,1331.2v155.5l-5.3,13.3l-12.7,31.7l-1.2,3l-7.6,18.9v281.2H280.7v-471.6h19v-32.1c0-0.2,0-0.3,0-0.5
					c0-0.1,0-0.3,0.1-0.5c0-0.1,0-0.1,0-0.2s0.1-0.2,0.1-0.3c0-0.1,0.1-0.2,0.1-0.3c0,0,0-0.1,0.1-0.1c0,0,0,0,0-0.1v-0.1
					c0,0,0,0,0-0.1c0,0,0,0,0-0.1c0,0,0,0,0-0.1s0-0.1,0.1-0.2l0,0c0-0.1,0.1-0.1,0.1-0.2v-0.1c0.1-0.2,0.3-0.4,0.4-0.5
					c0-0.1,0.1-0.1,0.2-0.2l0,0c0.9-0.8,2.1-1.4,3.4-1.4h28.4c0.1,0,0.3,0,0.4,0s0.3,0,0.4,0c0.3,0.1,0.6,0.1,0.8,0.2
					c0.1,0,0.1,0,0.2,0.1s0.3,0.1,0.4,0.2s0.3,0.2,0.4,0.2l0,0c0.4,0.3,0.7,0.6,1,0.9c0.1,0.1,0.2,0.2,0.3,0.4c0,0,0,0,0,0.1
					c0.1,0.1,0.1,0.2,0.2,0.3c0.1,0.1,0.1,0.3,0.2,0.4s0.1,0.3,0.2,0.4c0,0.1,0,0.1,0,0.2s0,0.2,0.1,0.2v0.1c0,0.1,0,0.2,0.1,0.4
					c0,0.2,0,0.3,0,0.5v32.1h38v-32.1c0-0.2,0-0.3,0-0.5c0-0.1,0-0.2,0.1-0.4v-0.1c0-0.3,0.2-0.6,0.3-0.9c0.1-0.2,0.1-0.3,0.2-0.5
					c0.1-0.1,0.1-0.2,0.2-0.3c0.2-0.2,0.4-0.5,0.6-0.7c0.1-0.1,0.2-0.2,0.3-0.3c0.1-0.1,0.2-0.2,0.4-0.3l0,0
					c0.1-0.1,0.2-0.2,0.4-0.2c0.1-0.1,0.3-0.1,0.4-0.2c0.1,0,0.1-0.1,0.2-0.1c0.3-0.1,0.5-0.2,0.8-0.2c0.1,0,0.1,0,0.2,0
					c0.2,0,0.4,0,0.6,0h28.4c0.3,0,0.6,0,0.9,0.1c0.1,0,0.2,0.1,0.4,0.1c0.1,0,0.1,0,0.2,0s0.2,0.1,0.3,0.1h0.1
					c0.1,0,0.2,0.1,0.3,0.2c0.1,0.1,0.3,0.1,0.4,0.2c0,0,0.1,0.1,0.2,0.1c0.1,0.1,0.2,0.1,0.3,0.2c0,0,0.1,0,0.1,0.1l0,0
					c0.1,0.1,0.1,0.1,0.2,0.2s0.2,0.1,0.2,0.2c0.1,0.1,0.2,0.2,0.2,0.2c0.1,0.1,0.1,0.1,0.1,0.2c0.1,0.1,0.2,0.2,0.2,0.3
					c0,0.1,0.1,0.1,0.1,0.2c0.2,0.4,0.3,0.8,0.4,1.2c0,0.2,0.1,0.3,0.1,0.4l0,0c0,0.1,0,0.2,0,0.3c0,0,0,0,0,0.1
					C413.7,1331.1,413.7,1331.1,413.7,1331.2z"/>
				<path class="st4" d="M1207,1331.2v155.5l-5.4,13.3l-13.9,34.8l-7.6,18.9v281.2H968v-280.3l-27-67.9v-155.5
					c0-2.6,2.1-4.7,4.8-4.7h28.4c2.7,0,4.8,2.1,4.8,4.7v32.1h38v-32.1c0-2.6,2.2-4.7,4.8-4.7h28.4c2.6,0,4.8,2.1,4.8,4.7v32.1h38
					v-32.1c0-2.6,2.2-4.7,4.8-4.7h28.4c2.7,0,4.8,2.1,4.8,4.7v32.1h38v-32.1c0-2.6,2.1-4.7,4.8-4.7h28.4
					C1204.9,1326.5,1207,1328.6,1207,1331.2z"/>
				<path class="st5" d="M1207,1331.2v155.5l-5.4,13.3l-13.9,34.8l-7.6,18.9v281.2H1074v-471.6h19v-32.1c0-2.6,2.2-4.7,4.8-4.7h28.4
					c2.7,0,4.8,2.1,4.8,4.7v32.1h38v-32.1c0-2.6,2.1-4.7,4.8-4.7h28.4C1204.9,1326.5,1207,1328.6,1207,1331.2z"/>
				<path class="st7" d="M413.7,1331.2v88.9h-266v-88.9c0-2.6,2.2-4.6,4.8-4.6h28.4c2.7,0,4.8,2.1,4.8,4.6v32.1h38v-32.1
					c0-2.6,2.2-4.6,4.8-4.6H257c2.6,0,4.8,2.1,4.8,4.6v32.1h38v-32.1c0-1,0.3-1.9,0.8-2.6c0.2-0.3,0.4-0.5,0.6-0.7
					c0.9-0.8,2.1-1.4,3.4-1.4H333c2,0,3.7,1.2,4.4,2.8c0.1,0.3,0.2,0.6,0.3,0.9c0.1,0.3,0.1,0.6,0.1,0.9v32.1h38v-32.1
					c0-0.3,0-0.6,0.1-0.9c0-0.3,0.1-0.6,0.3-0.9c0.7-1.7,2.4-2.8,4.4-2.8H409c1.5,0,2.8,0.7,3.7,1.7c0.2,0.2,0.4,0.5,0.5,0.7
					C413.5,1329.6,413.7,1330.3,413.7,1331.2L413.7,1331.2z"/>
				<path class="st7" d="M1207,1331.2v88.9H941v-88.9c0-2.6,2.1-4.6,4.8-4.6h28.4c2.7,0,4.8,2.1,4.8,4.6v32.1h38v-32.1
					c0-2.6,2.2-4.6,4.8-4.6h28.4c2.6,0,4.8,2.1,4.8,4.6v32.1h38v-32.1c0-2.6,2.2-4.6,4.8-4.6h28.4c2.7,0,4.8,2.1,4.8,4.6v32.1h38
					v-32.1c0-2.6,2.1-4.6,4.8-4.6h28.4C1204.9,1326.5,1207,1328.6,1207,1331.2L1207,1331.2z"/>
				<g>
					<path class="st9" d="M335.5,1680.6v92.6H225.9v-92.6c0-29.3,24.6-53,54.9-53C311,1627.6,335.5,1651.3,335.5,1680.6
						L335.5,1680.6z"/>
					<path class="st10" d="M335.5,1680.6v92.6h-54.8v-145.6C311,1627.6,335.5,1651.3,335.5,1680.6z"/>
					<path class="st7" d="M348.5,1762v22.3c0,3.5-3,6.4-6.6,6.4H219.6c-3.7,0-6.6-2.9-6.6-6.4V1762c0-3.5,3-6.4,6.6-6.4h122.2
						C345.5,1755.6,348.5,1758.5,348.5,1762z"/>
					<path class="st8" d="M348.5,1762v22.3c0,3.5-3,6.4-6.6,6.4h-61.1v-35.1h61.1C345.5,1755.6,348.5,1758.5,348.5,1762z"/>
				</g>
				<path class="st9" d="M1128.9,1680.6v92.6h-109.7v-92.6c0-29.3,24.6-53,54.9-53C1104.3,1627.6,1128.9,1651.3,1128.9,1680.6
					L1128.9,1680.6z"/>
				<path class="st10" d="M1128.9,1680.6v92.6H1074v-145.6C1104.3,1627.6,1128.9,1651.3,1128.9,1680.6z"/>
				<path class="st7" d="M1141.7,1762v22.3c0,3.5-3,6.4-6.6,6.4h-122.2c-3.7,0-6.6-2.9-6.6-6.4V1762c0-3.5,3-6.4,6.6-6.4h122.2
					C1138.8,1755.6,1141.7,1758.5,1141.7,1762z"/>
				<path class="st8" d="M1141.7,1762v22.3c0,3.5-3,6.4-6.6,6.4H1074v-35.1h61.1C1138.8,1755.6,1141.7,1758.5,1141.7,1762z"/>
				<path class="st5" d="M968,1576.2h76v34.8h-76V1576.2z"/>
				<path class="st11" d="M1201.6,1500l-13.9,34.8h-77.3V1500H1201.6z"/>
				<path class="st5" d="M941,1436.8h75.3v34.8H941V1436.8z"/>
				<path class="st5" d="M532.8,1369.9h71.5v34.8h-71.5V1369.9z"/>
				<path class="st11" d="M778.8,1454.2h43.3v34.8h-43.3V1454.2z"/>
				<path class="st11" d="M706.9,1355.1h102.5v34.8H706.9V1355.1z"/>
				<path class="st11" d="M706.9,1578h102.5v34.8H706.9V1578z"/>
				<path class="st5" d="M532.8,1576.2h67.4v34.8h-67.4V1576.2z"/>
				<g>
					<path class="st11" d="M486.9,1790.8h105.2v34.8H486.9V1790.8z"/>
					<path class="st11" d="M769.5,1782.2h105.2v34.8H769.5V1782.2z"/>
					<path class="st11" d="M1141.7,1637h38.4v34.8h-38.4V1637z"/>
				</g>
				<path class="st5" d="M174.7,1576.2h76v34.8h-76V1576.2z"/>
				<path class="st11" d="M408.3,1500l-13.9,34.8h-77.3V1500H408.3z"/>
				<path class="st5" d="M147.7,1436.8H223v34.8h-75.3V1436.8z"/>
				<path class="st11" d="M348.4,1637h38.4v34.8h-38.4V1637z"/>
			</g>
			<path class="st7" d="M850.7,1289v41.2c0,5.6-4.7,10.2-10.5,10.2H677.3v-61.6h162.8C846,1278.8,850.7,1283.3,850.7,1289
				L850.7,1289z"/>
			<path class="st8" d="M968,1635.4v116.9H677.3v-124.7h24.3c4.5,0,8.2,3.5,8.2,7.9v54.5h64.6v-54.5c0-4.3,3.6-7.9,8.2-7.9h48.3
				c4.5,0,8.2,3.5,8.2,7.9v54.5h64.6v-54.5c0-4.3,3.6-7.9,8.1-7.9h48.3C964.4,1627.6,968,1631.1,968,1635.4z"/>
			<g>
				<path class="st8" d="M1207,1331.2v88.9h-133v-56.9h19v-32.1c0-2.6,2.2-4.6,4.8-4.6h28.4c2.7,0,4.8,2.1,4.8,4.6v32.1h38v-32.1
					c0-2.6,2.1-4.6,4.8-4.6h28.4C1204.9,1326.5,1207,1328.6,1207,1331.2L1207,1331.2z"/>
				<path class="st8" d="M413.7,1331.2v88.9h-133v-56.9h19v-32.1c0-1,0.3-1.9,0.8-2.6c0.2-0.3,0.4-0.5,0.6-0.7
					c0.9-0.8,2.1-1.4,3.4-1.4h28.4c2,0,3.7,1.2,4.4,2.8c0.1,0.3,0.2,0.6,0.3,0.9c0.1,0.3,0.1,0.6,0.1,0.9v32.1h38V1331
					c0-0.3,0-0.6,0.1-0.9c0-0.3,0.1-0.6,0.3-0.9c0.7-1.7,2.4-2.8,4.4-2.8h28.4c1.5,0,2.8,0.7,3.7,1.7c0.2,0.2,0.4,0.5,0.5,0.7
					C413.5,1329.6,413.7,1330.3,413.7,1331.2L413.7,1331.2z"/>
			</g>
		</g>
	</g>
</g>
<linearGradient id="SVGID_2_" gradientUnits="userSpaceOnUse" x1="1471.826" y1="757.1739" x2="1471.826" y2="757.1739">
	<stop  offset="0" style="stop-color:#06116A"/>
	<stop  offset="1.118439e-02" style="stop-color:#061169"/>
	<stop  offset="0.2563" style="stop-color:#06114D"/>
	<stop  offset="0.5032" style="stop-color:#061139"/>
	<stop  offset="0.7507" style="stop-color:#06112D"/>
	<stop  offset="1" style="stop-color:#061129"/>
</linearGradient>
<path class="st12" d="M1471.8,757.2"/>
</svg>
