<svg xmlns="http://www.w3.org/2000/svg" version="1.1" xmlns:xlink="http://www.w3.org/1999/xlink" xmlns:svgjs="http://svgjs.com/svgjs" width="512" height="512" x="0" y="0" viewBox="0 0 64 64" style="enable-background:new 0 0 512 512" xml:space="preserve" class=""><g><linearGradient xmlns="http://www.w3.org/2000/svg" id="linear-gradient" gradientUnits="userSpaceOnUse" x1="45" x2="45" y1="60" y2="52"><stop offset="0" stop-color="#80583c"></stop><stop offset=".32" stop-color="#896142"></stop><stop offset=".8404" stop-color="#a17954"></stop><stop offset="1" stop-color="#aa825a"></stop></linearGradient><linearGradient xmlns="http://www.w3.org/2000/svg" id="linear-gradient-2" gradientUnits="userSpaceOnUse" x1="13.38" x2="50.987" y1="31.5" y2="31.5"><stop stop-opacity="1" stop-color="#a7ff8e" offset="0"></stop><stop stop-opacity="1" stop-color="#00e58a" offset="0.5"></stop><stop stop-opacity="1" stop-color="#00e58a" offset="1"></stop></linearGradient><linearGradient xmlns="http://www.w3.org/2000/svg" id="linear-gradient-3" x1="26" x2="26" xmlns:xlink="http://www.w3.org/1999/xlink" xlink:href="#linear-gradient" y1="62"></linearGradient><path xmlns="http://www.w3.org/2000/svg" d="m45 52a8 8 0 0 0 -8 8h16a8 8 0 0 0 -8-8z" fill="url(#linear-gradient)" data-original="url(#linear-gradient)"></path><path xmlns="http://www.w3.org/2000/svg" d="m43 54a6 6 0 0 0 -6 6h12a6 6 0 0 0 -6-6z" fill="#80583c" data-original="#80583c"></path><path xmlns="http://www.w3.org/2000/svg" d="m50.9735 18.8792a2.4374 2.4374 0 0 0 -2.6835-2.4106 2.5339 2.5339 0 0 0 -2.192 2.5314l-.0119 2-5.0861 1 4.6169-9.33a3.51 3.51 0 0 0 -.09-2.7487l-1.6763-3.6068a2.6958 2.6958 0 0 0 -5.0853 1.7912l1.494 3.4091-5.2593 9.4852v-12h-6v12l-3.4363-14.1673a3.094 3.094 0 0 0 -2.6474-2.8137 2.99 2.99 0 0 0 -3.3219 3.2631l3.5769 20.2023-3.0513-1.3613-1.4425-3.57a2.7889 2.7889 0 0 0 -5.002 2.468l2.0045 5.2943 9.32 8.6846v20h16v-20a10.2426 10.2426 0 0 0 3-7.2427v-4.7573l4.3046-1.502a4 4 0 0 0 2.6821-3.7954z" fill="url(#linear-gradient-2)" data-original="url(#linear-gradient-2)" class=""></path><path xmlns="http://www.w3.org/2000/svg" d="m40.8638 6.3145 1.6767 3.6071a3.5112 3.5112 0 0 1 .09 2.7487l-4.9389 9.98 3.3084-.6503 4.6169-9.33a3.51 3.51 0 0 0 -.09-2.7487l-1.6763-3.6068a2.6781 2.6781 0 0 0 -4.0281-1.3289 2.62 2.62 0 0 1 1.0413 1.3289z" fill="#00b489" data-original="#7db91f" class=""></path><path xmlns="http://www.w3.org/2000/svg" d="m50.9735 18.8792a2.4374 2.4374 0 0 0 -2.6835-2.4106 2.2956 2.2956 0 0 0 -1.2384.52 2.4212 2.4212 0 0 1 .9353 1.891l.0131 2.823a4 4 0 0 1 -2.6821 3.7954l-4.3047 1.502v4.7573a10.2426 10.2426 0 0 1 -3 7.2427v20h2.9868v-20a10.2426 10.2426 0 0 0 3-7.2427v-4.7573l4.3046-1.502a4 4 0 0 0 2.6821-3.7954z" fill="#00b489" data-original="#7db91f" class=""></path><path xmlns="http://www.w3.org/2000/svg" d="m39 56a3.9991 3.9991 0 0 0 -3.6722 2.4181 9.9937 9.9937 0 0 0 -14.1058-5.2043 7.979 7.979 0 0 0 -11.9598 8.7862h33.7378v-2a4 4 0 0 0 -4-4z" fill="url(#linear-gradient-3)" data-original="url(#linear-gradient-3)"></path><path xmlns="http://www.w3.org/2000/svg" d="m31 33a5.4914 5.4914 0 0 0 -5.28-7h-2.8115l.2628 1.4844 2.84.187a5.34 5.34 0 0 1 4.9887 5.3286z" fill="#00b489" data-original="#7db91f" class=""></path><path xmlns="http://www.w3.org/2000/svg" d="m33 9h2v12h-2z" fill="#00b489" data-original="#7db91f" class=""></path><ellipse xmlns="http://www.w3.org/2000/svg" cx="32" cy="9" fill="#ff0050" rx="3" ry="1" data-original="#c2dd75" class=""></ellipse><path xmlns="http://www.w3.org/2000/svg" d="m33.25 2a1.4972 1.4972 0 0 0 -1.25.6727 1.4985 1.4985 0 1 0 -1.5 2.3021v4.0252c0 .2761.6716.5 1.5.5s1.5-.2239 1.5-.5v-4.0252a1.4977 1.4977 0 0 0 -.25-2.9748z" fill="#e6e7e8" data-original="#e6e7e8" class=""></path><path xmlns="http://www.w3.org/2000/svg" d="m33.25 2a1.4743 1.4743 0 0 0 -.6182.1439 1.4942 1.4942 0 0 1 -.3818 2.8309v4.5168c.7087-.04 1.25-.244 1.25-.4916v-4.0252a1.4977 1.4977 0 0 0 -.25-2.9748z" fill="#c1c1c1" data-original="#c1c1c1" class=""></path></g></svg>