<?xml version="1.0" encoding="utf-8"?>
<!-- Generator: Adobe Illustrator 25.0.0, SVG Export Plug-In . SVG Version: 6.00 Build 0)  -->
<svg version="1.1" id="Camada_1" xmlns="http://www.w3.org/2000/svg" xmlns:xlink="http://www.w3.org/1999/xlink" x="0px" y="0px"
	 viewBox="0 0 2617.3 1945.9" style="enable-background:new 0 0 2617.3 1945.9;" xml:space="preserve">
<style type="text/css">
	.st0{fill:url(#SVGID_1_);}
	.st1{fill:url(#SVGID_2_);}
	.st2{display:none;fill:none;}
	.st3{fill:url(#SVGID_3_);}
	.st4{fill:#80583C;}
	.st5{fill:url(#SVGID_4_);}
	.st6{fill:#00B489;}
	.st7{fill:url(#SVGID_5_);}
	.st8{fill:#FF0050;}
	.st9{fill:#E6E7E8;}
	.st10{fill:#C1C1C1;}
</style>
<g id="Camada_1_1_">
	
		<linearGradient id="SVGID_1_" gradientUnits="userSpaceOnUse" x1="2106.0771" y1="2015.8" x2="4696.5757" y2="2015.8" gradientTransform="matrix(-1 0 0 -1 4723.2773 3120)">
		<stop  offset="0" style="stop-color:#06116A"/>
		<stop  offset="1.118439e-02" style="stop-color:#061169"/>
		<stop  offset="0.2563" style="stop-color:#06114D"/>
		<stop  offset="0.5032" style="stop-color:#061139"/>
		<stop  offset="0.7507" style="stop-color:#06112D"/>
		<stop  offset="1" style="stop-color:#061129"/>
	</linearGradient>
	<path class="st0" d="M291.4,1531.2c41.5,87.8,245.2,287.8,207.1,138.3c-2.7-10.7,8.8-19.5,18.3-13.9
		c384.8,223.5,694.2-378.8,630.7-701.4c-3.5-17.6,14.2-31.8,30.7-24.8c131.7,56,149.9-14.4,138-182.5
		c-56.6-801.1,585.8,326.2,1301-484.3v1683.2H95.7C-102,1665.5,176.4,1288.2,291.4,1531.2z"/>
	
		<linearGradient id="SVGID_2_" gradientUnits="userSpaceOnUse" x1="1135.5" y1="1037" x2="1135.5" y2="1037" gradientTransform="matrix(1 0 0 -1 0 1946)">
		<stop  offset="0" style="stop-color:#06116A"/>
		<stop  offset="1.118439e-02" style="stop-color:#061169"/>
		<stop  offset="0.2563" style="stop-color:#06114D"/>
		<stop  offset="0.5032" style="stop-color:#061139"/>
		<stop  offset="0.7507" style="stop-color:#06112D"/>
		<stop  offset="1" style="stop-color:#061129"/>
	</linearGradient>
	<path class="st1" d="M1135.5,909"/>
	<rect x="1460.1" y="851.5" class="st2" width="948.5" height="1097.7"/>
	<g>
		
			<image style="overflow:visible;opacity:0.65;enable-background:new    ;" width="1152" height="1447" xlink:href="BC7AFF7.png"  transform="matrix(0.7159 0 0 0.7159 1526.5449 997.2824)">
		</image>
		<g>
			<g>
				
					<linearGradient id="SVGID_3_" gradientUnits="userSpaceOnUse" x1="2119.3752" y1="120.3556" x2="2119.3752" y2="8.574341e-02" gradientTransform="matrix(1 0 0 -1 0 1946)">
					<stop  offset="0" style="stop-color:#80583C"/>
					<stop  offset="0.32" style="stop-color:#896142"/>
					<stop  offset="0.8404" style="stop-color:#A17954"/>
					<stop  offset="1" style="stop-color:#AA825A"/>
				</linearGradient>
				<path class="st3" d="M2239.6,1945.9h-240.4c0-0.4,0-0.8,0-1.1c0.1-4.7,0.4-9.3,0.9-13.9c1.9-15.5,6.8-30.1,14-43.2
					c0.1-0.1,0.1-0.3,0.2-0.4c10.6-18.9,26.1-34.6,44.9-45.5c17.7-10.2,38.2-16.1,60.1-16.1
					C2185.7,1825.7,2239.6,1879.6,2239.6,1945.9z"/>
				<path class="st4" d="M2179.4,1945.9h-180.3c0-0.4,0-0.8,0-1.1c0.1-4.7,0.5-9.3,1.2-13.9c2.1-12.8,7-24.7,14-35.1
					c2.2-3.4,4.7-6.5,7.3-9.4c10-11.4,23-20.3,37.6-25.4c9.4-3.3,19.5-5.2,30.1-5.2C2139.1,1855.8,2179.4,1896.2,2179.4,1945.9z"/>
				
					<linearGradient id="SVGID_4_" gradientUnits="userSpaceOnUse" x1="2059.6826" y1="-137.7003" x2="2130.2866" y2="-137.7003" gradientTransform="matrix(8 0 0 8 -14833 2619.2607)">
					<stop  offset="0" style="stop-color:#A7FF8E"/>
					<stop  offset="0.5" style="stop-color:#00E58A"/>
					<stop  offset="1" style="stop-color:#00E58A"/>
				</linearGradient>
				<path class="st5" d="M2209.1,1328c-0.1-20.3-16.6-36.5-36.9-36.4c-1.1,0-2.3,0.1-3.5,0.2c-19,2.6-33.1,18.9-32.9,38l-0.1,30.1
					l-76.5,15l69.4-140.2c5.2-13.4,4.7-28.3-1.4-41.3l-25.2-54.2c-7.5-21-30.7-32-51.8-24.5c-20.9,7.5-31.9,30.4-24.6,51.4
					l22.5,51.3l-79,142.5v-180.3h-90.1V1360l-51.6-212.9c-1.7-21.7-18.3-39.2-39.8-42.3c-24.6-2.9-47,14.7-49.8,39.4
					c-0.4,3.2-0.4,6.4-0.1,9.6l53.8,303.5l-45.8-20.5l-21.7-53.6c-10.4-20.7-35.5-29.1-56.2-18.8c-20.5,10.2-29,35.2-19,55.8
					l30.1,79.5l140,130.5v300.5h240.4v-300.5c28.9-28.9,45.1-68,45.1-108.8v-71.4l64.6-22.6c24.2-8.4,40.4-31.4,40.3-57.1
					L2209.1,1328z"/>
				<path class="st6" d="M2057.2,1139.2l25.2,54.2c6,13,6.5,27.9,1.4,41.3l-74.2,150l49.7-9.7l69.4-140.2
					c5.2-13.4,4.7-28.3-1.4-41.3l-25.2-54.2c-7.4-21-30.4-32-51.3-24.6c-3.3,1.1-6.4,2.7-9.2,4.7
					C2048.8,1124.1,2054.3,1131.1,2057.2,1139.2L2057.2,1139.2z"/>
				<path class="st6" d="M2209.1,1328c-0.1-20.3-16.6-36.5-36.9-36.4c-1.1,0-2.3,0.1-3.5,0.2c-6.9,0.7-13.3,3.4-18.6,7.8
					c8.8,6.8,14,17.3,14,28.4l0.2,42.5c0.1,25.6-16,48.5-40.3,57.1l-64.7,22.6v71.4c0,40.8-16.2,80-45.1,108.8v300.5h44.9v-300.5
					c28.9-28.9,45.1-68,45.1-108.8v-71.4l64.6-22.6c24.2-8.4,40.4-31.4,40.3-57.1L2209.1,1328z"/>
				
					<linearGradient id="SVGID_5_" gradientUnits="userSpaceOnUse" x1="1833.8772" y1="120.4671" x2="1833.8772" y2="8.574341e-02" gradientTransform="matrix(1 0 0 -1 0 1946)">
					<stop  offset="0" style="stop-color:#80583C"/>
					<stop  offset="0.32" style="stop-color:#896142"/>
					<stop  offset="0.8404" style="stop-color:#A17954"/>
					<stop  offset="1" style="stop-color:#AA825A"/>
				</linearGradient>
				<path class="st7" d="M2089.3,1945.9h-510.9c-0.1-22.5,6.2-44.8,18.3-64.2c35.2-56.1,109.2-73,165.3-37.8
					c5.8-3.2,11.8-5.9,18-8.3c12.7-4.9,25.8-7.9,38.8-9.2c65.7-6.6,130.4,31.1,155.2,95.7c7.4-17.3,22.4-29.9,40.1-34.4
					c0.1,0,0.1-0.1,0.2-0.1c2.4-0.6,4.9-1.1,7.3-1.4c2.5-0.4,5-0.5,7.5-0.5c11,0,21.2,2.9,30.1,8
					C2077.2,1904.2,2089.3,1923.7,2089.3,1945.9z"/>
				<path class="st6" d="M1909,1540.2c12.5-43.8-12.9-89.5-56.7-102c-7.4-2.1-15-3.2-22.7-3.2h-42.2l3.9,22.3l42.7,2.8
					C1876.2,1463,1909,1498,1909,1540.2z"/>
				<path class="st6" d="M1939,1179.6h30.1V1360H1939V1179.6z"/>
				<ellipse class="st8" cx="1924" cy="1179.6" rx="45.1" ry="15"/>
				<path class="st9" d="M1942.8,1074.5c-7.6,0-14.6,3.8-18.8,10.1c-6.9-10.4-20.8-13.2-31.2-6.4c-10.4,6.9-13.2,20.8-6.4,31.2
					c3.4,5.2,8.9,8.8,15,9.8v60.5c0,4.2,10.1,7.5,22.6,7.5s22.6-3.4,22.6-7.5v-60.5c12.2-2.1,20.5-13.7,18.5-25.9
					C1963.2,1082.3,1953.8,1074.4,1942.8,1074.5z"/>
				<path class="st10" d="M1942.8,1074.5c-3.2,0.1-6.4,0.8-9.3,2.1c11.2,5.2,16.2,18.5,11,29.8c-3.2,6.7-9.4,11.5-16.8,12.7v67.9
					c10.7-0.6,18.8-3.7,18.8-7.4v-60.5c12.2-2.1,20.5-13.7,18.5-25.9C1963.2,1082.3,1953.8,1074.4,1942.8,1074.5z"/>
			</g>
		</g>
	</g>
</g>
<g id="Camada_2_1_">
</g>
</svg>
