<svg xmlns="http://www.w3.org/2000/svg" version="1.1" xmlns:xlink="http://www.w3.org/1999/xlink" xmlns:svgjs="http://svgjs.com/svgjs" width="512" height="512" x="0" y="0" viewBox="0 0 512 512" style="enable-background:new 0 0 512 512" xml:space="preserve" class=""><g><g xmlns="http://www.w3.org/2000/svg"><path d="m431.667 512h65.333c8.286 0 15.001-6.723 15-15.009-.005-43.703-35.562-79.258-79.267-79.258h-16.067c-8.284 0-15 6.716-15 15v49.267c.001 16.569 13.432 30 30.001 30z" fill="#be0028" data-original="#be0028"></path><path d="m80.333 512h-65.333c-8.286 0-15.001-6.723-15-15.009.005-43.703 35.562-79.258 79.267-79.258h16.067c8.284 0 15 6.716 15 15v49.267c-.001 16.569-13.432 30-30.001 30z" fill="#ff0050" data-original="#ff0050"></path><path d="m319.2 512h112.466v-63.2c0-25.744-20.797-47.133-47.133-47.133h-80.333c-8.284 0-15 6.716-15 15v65.333c0 16.569 13.432 30 30 30z" fill="#e6dcd2" data-original="#e6dcd2"></path><path d="m192.8 512h-112.467v-63.2c0-25.744 20.797-47.133 47.133-47.133h80.334c8.284 0 15 6.716 15 15v65.333c0 16.569-13.432 30-30 30z" fill="#f0e9e1" data-original="#f0e9e1" class=""></path><path d="m192.8 401.667h126.4v110.333h-126.4z" fill="#ea71ec" data-original="#ea71ec" class=""></path><path d="m256 401.667h63.2v110.333h-63.2z" fill="#d438d9" data-original="#d438d9"></path><path d="m111.4 303.133h-32.133c-25.989 0-47.133-21.144-47.133-47.133s21.144-47.133 47.133-47.133h32.133c8.284 0 15 6.716 15 15v64.267c0 8.283-6.716 14.999-15 14.999z" fill="#ffc8be" data-original="#ffc8be" class=""></path><path d="m432.733 303.133h-32.133c-8.284 0-15-6.716-15-15v-64.267c0-8.284 6.716-15 15-15h32.134c25.989 0 47.133 21.144 47.133 47.133s-21.144 47.134-47.134 47.134z" fill="#ffaaa5" data-original="#ffaaa5"></path><path d="m111.4 367.4c-8.284 0-15-6.716-15-15v-177.8c0-8.284 6.716-15 15-15h289.2c8.284 0 15 6.716 15 15v177.8c0 8.284-6.716 15-15 15z" fill="#ffe1d2" data-original="#ffe1d2" class=""></path><path d="m415.6 352.4v-177.8c0-8.284-6.716-15-15-15h-144.6v207.8h144.6c8.284 0 15-6.716 15-15z" fill="#ffc8be" data-original="#ffc8be" class=""></path><path d="m336.333 431.667h-160.683c-43.699 0-79.25-35.552-79.25-79.25 0-8.284 6.716-15.016 15-15.016h80.333c27.166 0 49.267-22.101 49.267-49.267 0-8.284 6.716-15 15-15 8.276 0 14.987 6.703 15 14.976v.024c0 27.173 22.094 49.267 49.25 49.267h80.35c8.284 0 15 6.716 15 15 0 43.779-35.415 79.266-79.267 79.266z" fill="#faf5f0" data-original="#faf5f0" class=""></path><circle clip-rule="evenodd" cx="191.733" cy="223.867" fill="#37372d" fill-rule="evenodd" r="15" data-original="#37372d"></circle><circle clip-rule="evenodd" cx="320.267" cy="223.867" fill="#0f140a" fill-rule="evenodd" r="15" data-original="#0f140a"></circle><path d="m96.4 174.6v-159.6c0-6.067 3.655-11.537 9.26-13.858 5.604-2.321 12.057-1.039 16.347 3.252l61.693 61.693 61.693-61.693c5.857-5.858 15.355-5.858 21.213 0l61.694 61.693 61.693-61.693c4.29-4.29 10.744-5.572 16.347-3.252 5.605 2.322 9.26 7.791 9.26 13.858v159.6z" fill="#ffd755" data-original="#ffd755"></path><path d="m415.6 15c0-6.067-3.654-11.537-9.26-13.858-5.603-2.32-12.057-1.038-16.347 3.252l-61.693 61.693-61.694-61.693c-2.928-2.929-6.767-4.394-10.606-4.394v174.6h159.6z" fill="#fe9c1f" data-original="#fe9c1f"></path><path d="m336.333 431.667c43.853 0 79.267-35.486 79.267-79.267 0-8.284-6.716-15-15-15h-80.35c-27.156 0-49.25-22.094-49.25-49.267v-.024c-.013-8.273-6.724-14.976-15-14.976v158.533h80.333z" fill="#f0e9e1" data-original="#f0e9e1" class=""></path><path d="m336.333 273.133h-160.666c-43.708 0-79.267 35.559-79.267 79.267 0 8.284 6.716 15 15 15h65.333c43.708 0 79.267-35.559 79.267-79.267 0 43.708 35.559 79.267 79.267 79.267h65.333c8.284 0 15-6.716 15-15 0-43.708-35.559-79.267-79.267-79.267z" fill="#ffffff" data-original="#ffffff" class=""></path><path d="m335.267 367.4h65.333c8.284 0 15-6.716 15-15 0-43.708-35.559-79.267-79.267-79.267h-80.333v15c0 43.708 35.559 79.267 79.267 79.267z" fill="#faf5f0" data-original="#faf5f0" class=""></path></g></g></svg>