<svg version="1.1" id="Camada_1" xmlns:svgjs="http://svgjs.com/svgjs" xmlns="http://www.w3.org/2000/svg" xmlns:xlink="http://www.w3.org/1999/xlink" x="0px" y="0px" viewBox="0 0 512 512" style="enable-background:new 0 0 512 512;" xml:space="preserve"> <style type="text/css"> .st0{fill:#FFC8BE;} .st1{fill:#FFAAA5;} .st2{fill:#C7CFE1;} .st3{fill:#A7B9D8;} .st4{fill:#FFE1D2;} .st5{fill:#F0F7FF;} .st6{fill:#DFE7F4;} .st7{fill-rule:evenodd;clip-rule:evenodd;fill:#37372D;} .st8{fill-rule:evenodd;clip-rule:evenodd;fill:#0F140A;} .st9{fill:#6356AA;} .st10{fill:#4A3D8E;} .st11{fill:#FF8787;} </style> <g> <g> <path class="st0" d="M111.4,351.3H79.3c-26,0-47.1-21.1-47.1-47.1s21.1-47.1,47.1-47.1h32.1c8.3,0,15,6.7,15,15v64.3 C126.4,344.6,119.7,351.3,111.4,351.3z"/> <path class="st1" d="M432.7,351.3h-32.1c-8.3,0-15-6.7-15-15v-64.3c0-8.3,6.7-15,15-15h32.1c26,0,47.1,21.1,47.1,47.1 S458.7,351.3,432.7,351.3z"/> <path class="st2" d="M416,512H109.6c-18.2,0-31.7-16.7-28-34.5c3.2-15.5,24.3-75.8,94.5-75.8h158.2c25.6,0,50.4,9.7,68.5,27.8 c18.1,18,28,42,28,67.5v0C431,505.3,424.3,512,416,512z"/> <path class="st3" d="M431,497L431,497c0-25.5-10-49.5-28-67.5c-18.1-18.1-42.9-27.8-68.5-27.8H256V512h160 C424.3,512,431,505.3,431,497z"/> <path class="st4" d="M320.3,431.7H191.7c-52.7,0-95.3-42.6-95.3-95.3V223.9c0-8.3,6.7-15,15-15h289.2c8.3,0,15,6.7,15,15v112.5 C415.6,389,373,431.7,320.3,431.7z"/> <path class="st0" d="M415.6,336.3V223.9c0-8.3-6.7-15-15-15H256v222.8h64.3C373,431.7,415.6,389,415.6,336.3z"/> <path class="st5" d="M102.4,150.7c-3.8-2.8-6-7.3-6-12C96.4,68.8,149,31.4,184,20.9l67.7-20.3c2.8-0.8,5.8-0.8,8.6,0L328,20.9 c35,10.5,87.6,47.9,87.6,117.8c0,4.7-2.2,9.2-6,12c-3.8,2.8-8.7,3.7-13.3,2.3L256,111l-140.3,42.1 C113.3,153.8,107.8,154.7,102.4,150.7z"/> <path class="st6" d="M409.6,150.7c3.8-2.8,6-7.3,6-12c0-69.9-52.6-107.3-87.6-117.8L260.3,0.6C258.9,0.2,257.5,0,256,0v111 l140.3,42.1C400.8,154.4,405.7,153.6,409.6,150.7L409.6,150.7z"/> <path class="st6" d="M416.7,238.9H95.3c-8.3,0-15-6.7-15-15v-80.3c0-6.6,4.3-12.5,10.7-14.4L251.7,81c2.8-0.8,5.8-0.8,8.6,0 L421,129.2c6.3,1.9,10.7,7.7,10.7,14.4v80.3C431.7,232.2,425,238.9,416.7,238.9z"/> <path class="st2" d="M431.7,223.9v-80.3c0-6.6-4.3-12.5-10.7-14.4L260.3,81c-1.4-0.4-2.9-0.6-4.3-0.6v158.5h160.7 C425,238.9,431.7,232.2,431.7,223.9z"/> <path class="st1" d="M304.2,367.4h-96.4c-8.3,0-15-6.7-15-15s6.7-15,15-15h96.4c8.3,0,15,6.7,15,15S312.5,367.4,304.2,367.4z"/> <circle class="st7" cx="207.8" cy="288.1" r="15"/> <circle class="st8" cx="304.2" cy="288.1" r="15"/> <path class="st9" d="M232.9,86.6v152.2h-30V95.6L232.9,86.6z"/> <path class="st9" d="M156.6,109.5v129.4h-30V118.5L156.6,109.5z"/> <path class="st10" d="M385.4,118.5v120.4h-30V109.5L385.4,118.5z"/> <path class="st10" d="M309.1,95.6v143.2h-30V86.6L309.1,95.6z"/> <path class="st6" d="M110.3,512H15c-8.2,0-15-6.6-15-14.9c-0.1-52.8,42.6-95.6,95.5-95.5c8.2,0,14.9,6.8,14.9,15V512z"/> <path class="st2" d="M401.7,512H497c8.2,0,15-6.6,15-14.9c0.1-52.8-42.6-95.6-95.5-95.5c-8.2,0-14.9,6.8-14.9,15V512z"/> <path class="st11" d="M319.2,352.4c0-8.3-6.7-15-15-15H256v30h48.2C312.5,367.4,319.2,360.7,319.2,352.4z"/> </g> </g> </svg>