<svg id="Camada_1" data-name="Camada 1" xmlns="http://www.w3.org/2000/svg" viewBox="0 0 905.09 485.13"><defs><style>.cls-1{fill:#222323;}.cls-2{fill:#5eb77c;}.cls-3{fill:#fcbf05;}.cls-4{fill:#f59d1b;}.cls-5{fill:#48578e;}.cls-6{fill:#28386d;}.cls-7{fill:#f0f7fd;}.cls-8{fill:#e0e8f4;}.cls-9{fill:#62739c;}</style></defs><path class="cls-1" d="M90.39,0H814.7a90.39,90.39,0,0,1,90.39,90.39v297a0,0,0,0,1,0,0H90.39A90.39,90.39,0,0,1,0,297V90.39A90.39,90.39,0,0,1,90.39,0Z"/><path class="cls-2" d="M555.71,268.07a34.26,34.26,0,0,1,2.51-12.85,35.36,35.36,0,0,1,7.35-11.35,36,36,0,0,1,11.77-8.15A38.55,38.55,0,0,1,593,232.67a36.13,36.13,0,0,1,18.06,4.3,27.6,27.6,0,0,1,11.24,11.2l-11.19,7.3a16.82,16.82,0,0,0-5-6.3,20.44,20.44,0,0,0-6.66-3.3,25.33,25.33,0,0,0-6.88-1,20.25,20.25,0,0,0-16.46,7.6,24.21,24.21,0,0,0-4.1,7.6,27.1,27.1,0,0,0-1.38,8.5,25.64,25.64,0,0,0,1.6,8.95,24.22,24.22,0,0,0,4.52,7.7,21.44,21.44,0,0,0,7,5.3,20.66,20.66,0,0,0,9,2,24,24,0,0,0,7-1.1,20.63,20.63,0,0,0,6.71-3.5,17.73,17.73,0,0,0,5-6.3l11.93,6.6a22.1,22.1,0,0,1-7.4,9,37.33,37.33,0,0,1-11.3,5.6,42.23,42.23,0,0,1-12.41,1.9,34,34,0,0,1-14.75-3.15,37.61,37.61,0,0,1-11.56-8.4,39,39,0,0,1-7.62-11.8A34.3,34.3,0,0,1,555.71,268.07Z"/><path class="cls-2" d="M704.12,233.17v71h-14.6v-30.3h-34.3v30.3h-14.7v-71h14.7v28.7h34.3v-28.7Z"/><path class="cls-2" d="M747.59,233.17H762.5l27.81,71H775.18l-6.28-17.7H741.12l-6.32,17.7H719.67Zm17.86,43.6-10.4-29.3-10.46,29.3Z"/><path class="cls-2" d="M855.19,245.27H831.11v58.9H816.52v-58.9H792.23v-12.1h63Z"/><path class="cls-3" d="M209.84,200.35h-5.78l-5.79,5.78V209a8.68,8.68,0,0,0,17.36,0v-2.9Z"/><path class="cls-4" d="M215.63,209v-2.9l-5.79-5.78H207v17.36a8.67,8.67,0,0,0,8.68-8.68Z"/><path class="cls-5" d="M209.84,188.77h-5.78l-5.79,5.79v11.57h17.36V194.56Z"/><path class="cls-6" d="M215.63,194.56l-5.79-5.79H207v17.36h8.68Z"/><path class="cls-7" d="M220.59,95.16,209,83.57a2.9,2.9,0,0,0-4.1,0L193.31,95.16a2.86,2.86,0,0,0-.85,2v82.87h28.95l0-82.87a2.94,2.94,0,0,0-.84-2Z"/><path class="cls-8" d="M221.43,97.2a2.94,2.94,0,0,0-.84-2L209,83.57a2.91,2.91,0,0,0-2.05-.85v97.37h14.47Z"/><path class="cls-9" d="M207,180.09h-8.68v14.47h17.36V180.09Z"/><path class="cls-5" d="M206.94,180.07h8.68v14.47h-8.68Z"/><path class="cls-3" d="M224.33,177.18H189.57a2.9,2.9,0,0,0,0,5.79H224.3a2.89,2.89,0,0,0,2.9-2.9A2.84,2.84,0,0,0,224.33,177.18Z"/><path class="cls-4" d="M227.22,180.07a2.87,2.87,0,0,0-2.89-2.89H207V183h17.37A2.88,2.88,0,0,0,227.22,180.07Z"/><path class="cls-8" d="M76,91.83l34.62,92.57,34.07-92.57h26.14L122.55,212h-24L49.89,91.83Z"/><path class="cls-8" d="M260.46,212V91.83h24.88V191.5H350.6V212Z"/><path class="cls-8" d="M377.82,212V91.83H402.7V191.5H468V212Z"/><path class="cls-8" d="M530,91.83h25.24l47,120.15h-25.6L566,182H519L508.34,212h-25.6Zm30.23,73.78L542.59,116l-17.7,49.58Z"/><path class="cls-8" d="M676.72,212.83a59.74,59.74,0,0,1-43-17.77A60.88,60.88,0,0,1,616,151.23,57.51,57.51,0,0,1,620.74,128a62.6,62.6,0,0,1,13.16-19.29,59.75,59.75,0,0,1,19.74-13A64.13,64.13,0,0,1,678.16,91q18.21,0,31.1,7.11a47.36,47.36,0,0,1,19.38,19.12l-18.57,12.86a32.06,32.06,0,0,0-13.52-13.71,39.8,39.8,0,0,0-19.11-4.74,34.19,34.19,0,0,0-14.87,3.22,35.37,35.37,0,0,0-11.63,8.8,38.47,38.47,0,0,0-7.39,12.86,46.45,46.45,0,0,0-2.53,15.4,43.84,43.84,0,0,0,2.8,15.9,39,39,0,0,0,7.93,12.78,36.07,36.07,0,0,0,27.13,11.59,39.09,39.09,0,0,0,18.75-4.74,57.75,57.75,0,0,0,16.59-13.87v23.18Q698.17,212.83,676.72,212.83Zm35.69-45.52H686.63v-17.1H733V212H712.41Z"/><path class="cls-8" d="M855.19,191.5V212H766.32V91.83h87.25v20.48H791.19v28.94h53.73V160.2H791.19v31.3Z"/><polygon class="cls-1" points="905.09 366.04 905.09 485.13 735.26 366.04 905.09 366.04"/></svg>