<svg version="1.1" id="Camada_1" xmlns:svgjs="http://svgjs.com/svgjs" xmlns="http://www.w3.org/2000/svg" xmlns:xlink="http://www.w3.org/1999/xlink" x="0px" y="0px" viewBox="0 0 512 512" style="enable-background:new 0 0 512 512;" xml:space="preserve"> <style type="text/css"> .st0{fill:#FFC8BE;} .st1{fill:#FFAAA5;} .st2{fill:#6356AA;} .st3{fill:#4A3D8E;} .st4{fill:#FFE1D2;} .st5{fill:#FFFFFF;} .st6{fill:#FAF5F0;} .st7{fill:#F0E9E1;} .st8{fill-rule:evenodd;clip-rule:evenodd;fill:#37372D;} .st9{fill-rule:evenodd;clip-rule:evenodd;fill:#0F140A;} .st10{fill:#37375B;} </style> <g> <g> <path class="st0" d="M111.4,367.4H79.3c-26,0-47.1-21.1-47.1-47.1s21.1-47.1,47.1-47.1h32.1c8.3,0,15,6.7,15,15v64.3 C126.4,360.7,119.7,367.4,111.4,367.4z"/> <path class="st1" d="M432.7,367.4h-32.1c-8.3,0-15-6.7-15-15v-64.3c0-8.3,6.7-15,15-15h32.1c26,0,47.1,21.1,47.1,47.1 S458.7,367.4,432.7,367.4z"/> <path class="st2" d="M368.5,158.5H143.5c-5.2,0-10-2.7-12.8-7.1s-3-9.9-0.7-14.6L194.4,8.3c2.5-5.1,7.7-8.3,13.4-8.3H497 c7.2,0,13.4,5.1,14.7,12.2c1.4,7.1-2.5,14.1-9.2,16.8L357,87.1l24.8,49.7c2.3,4.6,2.1,10.2-0.7,14.6S373.7,158.5,368.5,158.5z"/> <path class="st3" d="M381.2,151.4c2.7-4.4,3-9.9,0.7-14.6L357,87.1l145.5-58.2c6.7-2.7,10.5-9.7,9.2-16.8C510.4,5.1,504.2,0,497,0 H256v158.5h112.5C373.7,158.5,378.5,155.8,381.2,151.4L381.2,151.4z"/> <path class="st4" d="M400.6,415.6c-8.3,0-15-6.7-15-15c0-27.2-22.1-49.3-49.2-49.3H175.7c-27.2,0-49.2,22.1-49.2,49.2v0 c0,8.3-6.7,15-15,15c-8.3,0-15-6.7-15-15c0,0,0,0,0,0V207.8c0-8.3,6.7-15,15-15h289.2c8.3,0,15,6.7,15,15v192.8 C415.6,408.9,408.9,415.6,400.6,415.6L400.6,415.6z"/> <path class="st0" d="M385.6,400.6c0,8.3,6.7,15,15,15s15-6.7,15-15V207.8c0-8.3-6.7-15-15-15H256v158.5h80.4 C363.5,351.3,385.6,373.4,385.6,400.6L385.6,400.6z"/> <path class="st5" d="M336.3,321.3H175.7c-43.7,0-79.3,35.6-79.3,79.3V497c0,8.3,6.7,15,15,15s15-6.7,15-15v-16.1 c0-36.1,29.2-65.3,65.3-65.3h128.5c36.1,0,65.3,29.2,65.3,65.3V497c0,8.3,6.7,15,15,15s15-6.7,15-15v-96.4 C415.6,356.9,380,321.3,336.3,321.3z"/> <path class="st6" d="M385.6,480.9V497c0,8.3,6.7,15,15,15s15-6.7,15-15v-96.4c0-43.7-35.6-79.3-79.3-79.3H256v94.3h64.3 C356.3,415.6,385.6,444.8,385.6,480.9z"/> <path class="st6" d="M400.6,512c8.3,0,15-6.7,15-15v-16.1c0-52.7-42.7-95.3-95.3-95.3c-35.5,0-64.3-28.8-64.3-64.3 c0,35.5-28.8,64.3-64.3,64.3c-52.6,0-95.3,42.6-95.3,95.3V497c0,8.3,6.7,15,15,15H400.6z"/> <path class="st7" d="M415.6,497v-16.1c0-52.7-42.7-95.3-95.3-95.3c-35.5,0-64.3-28.8-64.3-64.3V512h144.6 C408.9,512,415.6,505.3,415.6,497z"/> <circle class="st8" cx="191.7" cy="272.1" r="15"/> <circle class="st9" cx="320.3" cy="272.1" r="15"/> <path class="st3" d="M503.7,194.4l-124.1-62H132.4l-124.1,62c-6.2,3.1-9.5,10.1-7.9,16.9S8,222.8,15,222.8h482 c7,0,13-4.8,14.6-11.6C513.2,204.5,509.9,197.5,503.7,194.4z"/> <path class="st10" d="M511.6,211.2c1.6-6.8-1.7-13.8-7.9-16.9l-124.1-62H256v90.4h241C504,222.8,510,218,511.6,211.2L511.6,211.2z "/> </g> </g> </svg>