<?xml version="1.0" encoding="utf-8"?>
<!-- Generator: Adobe Illustrator 25.0.0, SVG Export Plug-In . SVG Version: 6.00 Build 0)  -->
<svg version="1.1" id="Camada_1" xmlns="http://www.w3.org/2000/svg" xmlns:xlink="http://www.w3.org/1999/xlink" x="0px" y="0px"
	 viewBox="0 0 672.1 276.4" style="enable-background:new 0 0 672.1 276.4;" xml:space="preserve">
<style type="text/css">
	.st0{fill:#444242;stroke:#444242;stroke-miterlimit:10;}
	.st1{fill:none;stroke:#444242;stroke-width:10;stroke-miterlimit:10;}
</style>
<g>
	<g>
		<g>
			<path class="st0" d="M157.3,104.9H156h-1.3l-2.7,2.7v1.3c0,2.2,1.8,4,4,4s4-1.8,4-4v-1.3L157.3,104.9z"/>
			<path class="st0" d="M160,108.9v-1.3l-2.7-2.7H156v8C158.2,112.8,160,111.1,160,108.9L160,108.9z"/>
			<path class="st0" d="M157.3,99.6H156h-1.3l-2.7,2.7v5.3h4h4v-5.3L157.3,99.6z"/>
			<path class="st0" d="M160,102.2l-2.7-2.7H156v8h4V102.2z"/>
			<path class="st0" d="M162.3,56.7l-5.3-5.3c-0.3-0.3-0.6-0.4-1-0.4c-0.3,0-0.7,0.1-0.9,0.4l-5.3,5.3c-0.3,0.3-0.4,0.6-0.4,0.9v38
				h6.6h6.6v-38C162.6,57.3,162.5,56.9,162.3,56.7L162.3,56.7z"/>
			<path class="st0" d="M162.7,57.6c0-0.4-0.1-0.7-0.4-0.9l-5.3-5.3c-0.3-0.3-0.6-0.4-1-0.4v44.6h6.6L162.7,57.6z"/>
			<path class="st0" d="M156,95.6h-4v6.6h4h4v-6.6H156z"/>
			<path class="st0" d="M156,95.6h4v6.6h-4V95.6z"/>
			<path class="st0" d="M164,94.3h-8h-8c-0.7,0-1.3,0.6-1.3,1.3s0.6,1.3,1.3,1.3h8h8c0.7,0,1.3-0.6,1.3-1.3S164.7,94.3,164,94.3z"/>
			<path class="st0" d="M165.3,95.6c0-0.7-0.6-1.3-1.3-1.3h-8V97h8C164.7,96.9,165.3,96.3,165.3,95.6z"/>
		</g>
		<g>
			<path class="st0" d="M96.1,55.2L112,97.6l15.6-42.4h12l-22.1,55h-11l-22.3-55C84.2,55.2,96.1,55.2,96.1,55.2z"/>
			<path class="st0" d="M180.5,110.2v-55h11.4v45.7h29.9v9.4L180.5,110.2L180.5,110.2L180.5,110.2z"/>
			<path class="st0" d="M234.3,110.2v-55h11.4v45.7h29.9v9.4L234.3,110.2L234.3,110.2z"/>
			<path class="st0" d="M304,55.2h11.6l21.6,55h-11.7l-4.9-13.7H299l-4.9,13.7h-11.7L304,55.2z M317.8,89l-8.1-22.7l-8,22.7H317.8z"
				/>
			<path class="st0" d="M371.2,110.6c-3.9,0-7.5-0.7-10.8-2.1c-3.4-1.4-6.3-3.4-8.9-6s-4.6-5.6-6-9s-2.1-7.1-2.1-11.1
				c0-3.8,0.7-7.3,2.2-10.7c1.5-3.3,3.5-6.3,6-8.8c2.6-2.6,5.6-4.5,9-6c3.5-1.4,7.2-2.1,11.2-2.1c5.6,0,10.3,1.1,14.2,3.3
				c3.9,2.2,6.9,5.1,8.9,8.8l-8.5,5.9c-1.4-2.7-3.5-4.8-6.2-6.3c-2.7-1.4-5.6-2.2-8.8-2.2c-2.5,0-4.7,0.5-6.8,1.5
				c-2.1,1-3.8,2.3-5.3,4s-2.6,3.7-3.4,5.9s-1.2,4.6-1.2,7.1c0,2.6,0.4,5.1,1.3,7.3c0.9,2.2,2.1,4.2,3.6,5.9c1.6,1.7,3.4,3,5.5,3.9
				s4.4,1.4,6.9,1.4c3,0,5.9-0.7,8.6-2.2c2.7-1.4,5.2-3.6,7.6-6.4v10.6C383.5,108.1,377.8,110.6,371.2,110.6z M387.6,89.7h-11.8
				v-7.8H397v28.3h-9.4V89.7z"/>
			<path class="st0" d="M453,100.8v9.4h-40.7v-55h40v9.4h-28.6v13.3h24.6v8.7h-24.6v14.3L453,100.8L453,100.8z"/>
		</g>
		<g>
			<g>
				<path class="st0" d="M540.4,61.9h-7.8c-0.4,0-0.7,0.1-1,0.4l-13.4,13.4l-13.4-13.4c-0.3-0.3-0.6-0.4-1-0.4H496
					c-0.8,0-1.4,0.6-1.4,1.4v7.8c0,0.4,0.1,0.7,0.4,1l13.4,13.4l-3.8,3.8l-1-1c-0.5-0.5-1.4-0.5-2,0c-0.5,0.5-0.5,1.4,0,2l2.9,2.9
					c-2.1,2.1-6.5,6.5-8.8,8.8c-1.6,1.6-1.6,4.2,0,5.9c1.6,1.6,4.2,1.6,5.9,0c1.9-1.9,6.7-6.7,8.8-8.8l2.9,2.9c0.5,0.5,1.4,0.5,2,0
					c0.5-0.5,0.5-1.4,0-2l-1-1l3.8-3.8L522,99l-1,1c-0.5,0.5-0.5,1.4,0,2c0.5,0.5,1.4,0.5,2,0l2.9-2.9c0.9,0.9,7.9,7.9,8.8,8.8
					c1.6,1.6,4.2,1.6,5.9,0c1.6-1.6,1.6-4.2,0-5.9c-2.3-2.3-6.6-6.6-8.8-8.8l2.9-2.9c0.5-0.5,0.5-1.4,0-2c-0.5-0.5-1.4-0.5-2,0l-1,1
					l-3.8-3.8l13.4-13.4c0.3-0.3,0.4-0.6,0.4-1v-7.8C541.7,62.5,541.1,61.9,540.4,61.9L540.4,61.9z M499.8,105.8
					c-0.5,0.5-1.4,0.5-2,0c-0.5-0.5-0.5-1.4,0-2l1-1l2,2L499.8,105.8z M502.7,102.9l-2-2l2-2l2,2L502.7,102.9z M506.6,99l-2-2l2-2
					l2,2L506.6,99z M512.5,97.1c-1-1-5.1-5.1-5.9-5.9l3.8-3.8l5.9,5.9L512.5,97.1z M538.6,103.9c0.5,0.5,0.5,1.4,0,2
					c-0.5,0.5-1.4,0.5-2,0l-1-1l2-2L538.6,103.9z M535.6,101l-2,2l-2-2l2-2L535.6,101z M531.7,97.1l-2,2l-2-2l2-2L531.7,97.1z
					 M529.8,91.2c-0.5,0.5-4.8,4.8-5.9,5.9l-26.5-26.5v-5.9h5.9L529.8,91.2z M539,70.5l-13,13l-5.9-5.9l13-13h5.9V70.5z"/>
			</g>
		</g>
	</g>
	<g>
		<g>
			<g>
				<g>
					<g>
						<g>
							<g>
								<path class="st0" d="M272.7,214.2l-2.9-2.9c-0.6-0.6-1.5-0.6-2,0l-2.9,2.9c-0.9,0.9-0.3,2.5,1,2.5h5.8
									C273,216.7,273.6,215.1,272.7,214.2z"/>
							</g>
						</g>
						<g>
							<g>
								<path class="st0" d="M260.2,196.5c-4,0-7.2,3.2-7.2,7.2s3.2,7.2,7.2,7.2s7.2-3.2,7.2-7.2
									C267.4,199.8,264.1,196.5,260.2,196.5z M260.2,208.1c-2.4,0-4.3-2-4.3-4.3s2-4.3,4.3-4.3c2.4,0,4.3,2,4.3,4.3
									S262.5,208.1,260.2,208.1z"/>
							</g>
						</g>
						<g>
							<g>
								<path class="st0" d="M277.4,196.5c-4,0-7.2,3.2-7.2,7.2s3.2,7.2,7.2,7.2s7.2-3.2,7.2-7.2S281.4,196.5,277.4,196.5z
									 M277.4,208.1c-2.4,0-4.3-2-4.3-4.3s2-4.3,4.3-4.3c2.4,0,4.3,2,4.3,4.3S279.8,208.1,277.4,208.1z"/>
							</g>
						</g>
						<g>
							<g>
								<path class="st0" d="M289.9,205.3c1.5-7.2-0.7-14.5-5.9-19.7l0,0c-4.1-4.1-9.5-6.3-15.3-6.3s-11.2,2.2-15.3,6.3
									c-5.2,5.2-7.4,12.5-5.9,19.7c-0.6,1.7-0.6,3.6-0.1,5.3c0.9,3,3.4,5.3,6.6,5.9c0.4,0.1,0.4,0,1.1,0.1c0.2,0,0.4,0.1,0.6,0.1
									v5.6c0,1.7,1,3.3,2.6,4c2.4,1,6.1,2.2,10.3,2.2l0,0l0,0c4.3,0,8-1.2,10.3-2.2c1.6-0.7,2.6-2.2,2.6-4v-5.6
									c0.2,0,0.4,0,0.6-0.1c0.8-0.1,0.8,0,1.2-0.1c3.2-0.6,5.7-2.9,6.5-5.9C290.6,208.8,290.5,207,289.9,205.3z M287.3,209.7
									c-0.6,2-2.3,3.5-4.4,3.9c-1.2,0-1,0.3-2.2,0c-0.9-0.2-1.7,0.5-1.7,1.4v7.2c0,0.6-0.3,1.1-0.9,1.3c-0.5,0.2-1.2,0.5-2.1,0.7
									v-3.1c0-0.8-0.6-1.4-1.4-1.4s-1.4,0.6-1.4,1.4v3.9c-0.9,0.2-1.9,0.3-2.9,0.4v-4.3c0-0.8-0.6-1.4-1.4-1.4s-1.4,0.6-1.4,1.4
									v4.3c-1-0.1-2-0.2-2.9-0.4v-3.9c0-0.8-0.6-1.4-1.4-1.4s-1.4,0.6-1.4,1.4v3.1c-0.8-0.3-1.5-0.5-2-0.7s-0.9-0.8-0.9-1.3V215
									c0-0.9-0.8-1.6-1.7-1.4c-1.3,0.3-1,0-2.3,0c-2.1-0.4-3.8-1.9-4.4-3.9c-0.4-1.3-0.3-2.7,0.2-3.9c0.1-0.3,0.1-0.6,0.1-0.9
									c-1.5-6.5,0.5-12.9,5-17.4c3.5-3.5,8.2-5.5,13.2-5.5s9.7,2,13.2,5.5c4.6,4.6,6.5,11.1,5,17.4c-0.1,0.3,0,0.6,0.1,0.9
									C287.6,207.1,287.7,208.4,287.3,209.7z"/>
							</g>
						</g>
					</g>
				</g>
			</g>
			<path class="st1" d="M189.6,158.3v106l-28.1-24.4H21.8c-8.2,0-14.9-6.7-14.9-14.9v-66.7c0-8.2,6.7-14.9,14.9-14.9h152.9
				C183,143.4,189.6,150.1,189.6,158.3z"/>
		</g>
		<g>
			<g>
				<path class="st0" d="M628.5,189.4c-2.6,0-4.8,2.2-4.8,4.8c0,1.3,0.5,2.4,1.3,3.3c-0.6,0.9-1.4,1.7-2.2,2.4
					c-3.2-3.7-8.2-6.4-14.1-7.1c-0.1-0.3-0.2-0.6-0.2-0.8c1.4-0.8,2.3-2.4,2.3-4.1c0-2.6-2.2-4.8-4.8-4.8s-4.8,2.2-4.8,4.8
					c0,1.7,0.9,3.3,2.3,4.1c-0.1,0.3-0.1,0.6-0.2,0.8c-5.9,0.6-10.9,3.3-14.1,7.1c-0.8-0.7-1.6-1.4-2.2-2.4c0.8-0.9,1.3-2,1.3-3.3
					c0-2.6-2.2-4.8-4.8-4.8s-4.8,2.2-4.8,4.8c0,2.4,1.7,4.3,4,4.7l5.7,17.9v7.8h35.2v-7.8l5.7-17.9c2.3-0.4,4-2.4,4-4.7
					C633.3,191.5,631.1,189.4,628.5,189.4z M596.6,205.4c4.3-0.6,7.3-4.8,9.1-9.6c0.1,0,0.2,0,0.3,0s0.2,0,0.3,0
					c1.8,4.8,4.8,9,9.1,9.6c2.8,0.4,6.5-0.6,9.5-3.2l-4.1,12.8h-29.7l-4.1-12.8C590.1,204.8,593.8,205.7,596.6,205.4z M620,201.5
					c-1.5,0.6-3,0.9-4.2,0.7c-2.4-0.3-4.4-2.8-5.9-6C613.9,196.9,617.5,198.8,620,201.5z M605.9,186.2c0.9,0,1.6,0.7,1.6,1.6
					c0,0.9-0.7,1.6-1.6,1.6s-1.6-0.7-1.6-1.6C604.3,186.9,605.1,186.2,605.9,186.2z M602,196.1c-1.4,3.2-3.5,5.7-5.9,6
					c-1.2,0.2-2.7-0.1-4.2-0.7C594.4,198.8,598,196.9,602,196.1z M583.4,192.6c0.9,0,1.6,0.7,1.6,1.6c0,0.9-0.7,1.6-1.6,1.6
					s-1.6-0.7-1.6-1.6C581.8,193.3,582.6,192.6,583.4,192.6z M620.4,221.4h-28.8v-3.2h28.8V221.4z M628.5,195.8
					c-0.9,0-1.6-0.7-1.6-1.6c0-0.9,0.7-1.6,1.6-1.6c0.9,0,1.6,0.7,1.6,1.6S629.3,195.8,628.5,195.8z"/>
				<path class="st0" d="M611.4,207l-5.5-5.5l-5.5,5.5l5.5,5.5L611.4,207z M605.9,206l0.9,0.9l-0.9,0.9L605,207L605.9,206z"/>
				<path class="st0" d="M615.5,207.9l2.3,2.3l-2.3,2.3l-2.3-2.3L615.5,207.9z"/>
				<path class="st0" d="M596.3,207.9l2.3,2.3l-2.3,2.3l-2.3-2.3L596.3,207.9z"/>
			</g>
			<path class="st1" d="M530.7,158.3v106l-28.1-24.4H362.9c-8.2,0-14.9-6.7-14.9-14.9v-66.7c0-8.2,6.7-14.9,14.9-14.9h152.9
				C524,143.4,530.7,150.1,530.7,158.3z"/>
		</g>
	</g>
</g>
</svg>
