<svg xmlns="http://www.w3.org/2000/svg" version="1.1" xmlns:xlink="http://www.w3.org/1999/xlink" xmlns:svgjs="http://svgjs.com/svgjs" width="512" height="512" x="0" y="0" viewBox="0 0 512 512" style="enable-background:new 0 0 512 512" xml:space="preserve" class=""><g><g xmlns="http://www.w3.org/2000/svg"><path d="m460.937 251c-2.665-110.736-93.572-200-204.937-200-56.462 0-107.664 22.946-144.775 60l-60.162 150c2.665 110.736 93.571 200 204.937 200 56.461 0 107.664-22.946 144.775-60z" fill="#6aa9ff" data-original="#6aa9ff" class=""></path><g><path d="m400.775 401 60.161-150c-2.664-110.736-93.571-200-204.936-200v410c56.461 0 107.664-22.946 144.775-60z" fill="#6e76e5" data-original="#6e76e5" class=""></path></g><path d="m241 221c0-20.044-14.817-36.691-34.075-39.562 8.608-7.342 14.075-18.264 14.075-30.438 0-22.056-17.944-40-40-40h-69.775c-37.187 37.129-60.225 88.424-60.225 145 0 1.672.023 3.338.063 5h149.937c22.056 0 40-17.944 40-40z" fill="#00ec89" data-original="#00ec89" class=""></path><path d="m461 256c0-1.672-.023-3.338-.063-5h-129.937c-22.056 0-40 17.944-40 40 0 11.934 5.254 22.665 13.569 30h-3.569c-22.056 0-40 17.944-40 40s17.944 40 40 40h99.775c37.187-37.129 60.225-88.424 60.225-145z" fill="#00cbb1" data-original="#00cbb1" class=""></path><g><path d="m342 155v-25h-5c-19.33 0-35-15.67-35-35v-60c0-19.33 15.67-35 35-35h140c19.33 0 35 15.67 35 35v60c0 19.33-15.67 35-35 35h-64.738l-45.891 36.713c-9.822 7.857-24.371.864-24.371-11.713z" fill="#f7f7f7" data-original="#ff7d47" class=""></path><path d="m477 0h-70v134.209l5.262-4.209h64.738c19.33 0 35-15.67 35-35v-60c0-19.33-15.67-35-35-35z" fill="#b2b2b2" data-original="#ff405c" class=""></path><path d="m367 80h80c8.284 0 15-6.716 15-15s-6.716-15-15-15h-80c-8.284 0-15 6.716-15 15s6.716 15 15 15z" fill="#b2b2b2" data-original="#ff405c" class=""></path><path d="m447 50h-40v30h40c8.284 0 15-6.716 15-15s-6.716-15-15-15z" fill="#606060" data-original="#d0004f" class=""></path></g><g><path d="m145.63 508.685-45.891-36.713h-64.739c-19.33 0-35-15.67-35-35v-60c0-19.33 15.67-35 35-35h140c19.33 0 35 15.67 35 35v60c0 19.33-15.67 35-35 35h-5v25c0 12.577-14.549 19.57-24.37 11.713z" fill="#f7f7f7" data-original="#fff36c" class=""></path><path d="m175 341.972h-70v134.209l40.63 32.503c9.821 7.857 24.37.865 24.37-11.713v-25h5c19.33 0 35-15.67 35-35v-60c0-19.329-15.67-34.999-35-34.999z" fill="#b2b2b2" data-original="#ffcd00" class=""></path><path d="m145 421.972h-80c-8.284 0-15-6.716-15-15s6.716-15 15-15h80c8.284 0 15 6.716 15 15s-6.716 15-15 15z" fill="#b2b2b2" data-original="#ffcd00" class=""></path><path d="m145 391.972h-40v30h40c8.284 0 15-6.716 15-15s-6.716-15-15-15z" fill="#606060" data-original="#ff9f22" class=""></path></g></g></g></svg>