<svg version="1.1" id="Camada_1" xmlns:svgjs="http://svgjs.com/svgjs" xmlns="http://www.w3.org/2000/svg" xmlns:xlink="http://www.w3.org/1999/xlink" x="0px" y="0px" viewBox="0 0 512 512" style="enable-background:new 0 0 512 512;" xml:space="preserve"> <style type="text/css"> .st0{fill:#FDBF00;} .st1{fill:#FF9F00;} .st2{fill:#47568C;} .st3{fill:#29376D;} .st4{fill:#DFE7F4;} .st5{fill:#C7CFE1;} .st6{fill:#61729B;} .st7{fill:#F0F7FF;} </style> <g> <g> <path class="st0" d="M87.4,445.8l-10.6-10.6l-10.6-10.6H23.8l-10.6,10.6c-17.5,17.5-17.5,46.1,0,63.6c17.5,17.5,46.1,17.5,63.6,0 l10.6-10.6L87.4,445.8L87.4,445.8z"/> <path class="st1" d="M76.8,498.8l10.6-10.6v-42.4l-10.6-10.6l-63.6,63.6C30.7,516.4,59.3,516.4,76.8,498.8L76.8,498.8z"/> <path class="st2" d="M129.8,403.4l-10.6-10.6l-10.6-10.6H66.2l-42.4,42.4l31.8,31.8l31.8,31.8l42.4-42.4L129.8,403.4z"/> <path class="st3" d="M129.8,445.8v-42.4l-10.6-10.6l-63.6,63.6l31.8,31.8L129.8,445.8z"/> <path class="st4" d="M512,99.9V15c0-4.1-1.7-7.9-4.4-10.6C504.9,1.7,501.1,0,497,0h-84.9c-4,0-7.8,1.6-10.6,4.4L98,307.9l53,53 l53,53l303.5-303.5C510.4,107.6,512,103.8,512,99.9L512,99.9z"/> <path class="st5" d="M507.6,110.5c2.8-2.8,4.4-6.6,4.4-10.6V15c0-4.1-1.7-7.9-4.4-10.6L151,361l53,53L507.6,110.5z"/> <path class="st6" d="M151,361l-31.8-31.8l-53,53L98,414l31.8,31.8l53-53L151,361z"/> <path class="st2" d="M98,414l53-53l31.8,31.8l-53,53L98,414z"/> <path class="st0" d="M225.3,414l-63.6-63.6L98,286.7c-5.9-5.9-15.4-5.9-21.2,0c-5.9,5.9-5.9,15.4,0,21.2l63.6,63.6l63.6,63.6 c5.9,5.9,15.4,5.9,21.2,0S231.2,419.9,225.3,414z"/> <path class="st1" d="M225.3,435.2c5.9-5.9,5.9-15.4,0-21.2l-63.6-63.6l-21.2,21.2l63.6,63.6C209.9,441.1,219.4,441.1,225.3,435.2z "/> <g> <path class="st0" d="M445.8,424.6l-10.6,10.6l-10.6,10.6v42.4l10.6,10.6c17.5,17.5,46.1,17.5,63.6,0c17.5-17.5,17.5-46.1,0-63.6 l-10.6-10.6H445.8z"/> <path class="st1" d="M498.8,435.2l-10.6-10.6h-42.4l-10.6,10.6l63.6,63.6C516.4,481.3,516.4,452.7,498.8,435.2L498.8,435.2z"/> <path class="st2" d="M403.4,382.2l-10.6,10.6l-10.6,10.6v42.4l42.4,42.4l31.8-31.8l31.8-31.8l-42.4-42.4L403.4,382.2z"/> <path class="st3" d="M445.8,382.2h-42.4l-10.6,10.6l63.6,63.6l31.8-31.8L445.8,382.2z"/> <path class="st7" d="M99.9,0H15C10.9,0,7.1,1.7,4.4,4.4S0,10.9,0,15v84.9c0,4,1.6,7.8,4.4,10.6L307.9,414l53-53l53-53L110.5,4.4 C107.6,1.6,103.8,0,99.9,0L99.9,0z"/> <path class="st4" d="M110.5,4.4C107.6,1.6,103.8,0,99.9,0H15C10.9,0,7.1,1.7,4.4,4.4L361,361l53-53L110.5,4.4z"/> <path class="st6" d="M361,361l-31.8,31.8l53,53L414,414l31.8-31.8l-53-53L361,361z"/> <path class="st2" d="M360.9,361l31.8-31.8l53,53L413.9,414L360.9,361z"/> <path class="st0" d="M414,286.7l-63.6,63.6L286.7,414c-5.9,5.9-5.9,15.4,0,21.2c5.9,5.9,15.4,5.9,21.2,0l63.6-63.6l63.6-63.6 c5.9-5.9,5.9-15.4,0-21.2C429.3,280.8,419.9,280.8,414,286.7z"/> <path class="st1" d="M435.2,286.7c-5.9-5.9-15.4-5.9-21.2,0l-63.6,63.6l21.2,21.2l63.6-63.6C441.1,302.1,441.1,292.6,435.2,286.7 z"/> </g> </g> </g> </svg>