<svg xmlns="http://www.w3.org/2000/svg" version="1.1" xmlns:xlink="http://www.w3.org/1999/xlink" xmlns:svgjs="http://svgjs.com/svgjs" width="512" height="512" x="0" y="0" viewBox="0 0 512 512" style="enable-background:new 0 0 512 512" xml:space="preserve" class=""><g><g xmlns="http://www.w3.org/2000/svg"><path d="m239.062 184.98c-7.858-2.612-16.351 1.644-18.963 9.506l-25.678 77.298-26.969-77.698c-2.716-7.826-11.261-11.969-19.088-9.251-7.826 2.716-11.968 11.263-9.251 19.089l38.972 112.28c.012.034.023.067.035.101 2.488 7.006 9.132 11.692 16.558 11.692h.12c7.474-.051 14.112-4.839 16.518-11.916.011-.033.022-.066.033-.099l37.218-112.038c2.612-7.863-1.644-16.353-9.505-18.964z" fill="#eeeeee" data-original="#000000" class=""></path><path d="m255.994 63.003c-106.415 0-192.99 86.579-192.99 192.998s86.575 192.998 192.99 192.998c106.416 0 192.99-86.579 192.99-192.998s-86.575-192.998-192.99-192.998zm0 355.997c-89.874 0-162.992-73.121-162.992-162.999s73.118-162.999 162.992-162.999 162.992 73.121 162.992 162.999-73.118 162.999-162.992 162.999z" fill="#eeeeee" data-original="#000000" class=""></path><path d="m15.006 92.609h35.868l-27.728 38.899c-4.808 6.746-3.238 16.113 3.507 20.921 6.671 4.775 16.083 3.283 20.92-3.507l44.627-62.606c7.148-9.4-.413-24.071-12.214-23.707h-35.868l27.728-38.899c4.808-6.746 3.238-16.113-3.507-20.921-6.746-4.809-16.111-3.239-20.92 3.507l-44.627 62.606c-7.171 9.404.396 24.088 12.214 23.707z" fill="#eeeeee" data-original="#000000" class=""></path><path d="m510.079 441.692c5.69-9.511-2.029-22.627-13.098-22.299h-35.869l27.728-38.899c4.809-6.746 3.239-16.113-3.507-20.921-6.746-4.809-16.112-3.238-20.92 3.507l-44.627 62.606c-7.172 9.403.396 24.088 12.213 23.707h35.869l-27.728 38.899c-4.809 6.746-3.239 16.113 3.507 20.921 6.671 4.775 16.083 3.284 20.92-3.507.879-1.388 44.86-62.628 45.512-64.014z" fill="#eeeeee" data-original="#000000" class=""></path><path d="m366.128 63.342c7.213 3.753 16.394.96 20.198-6.479l17.999-35c3.789-7.367.889-16.411-6.478-20.2s-16.41-.888-20.198 6.479l-17.999 35c-3.789 7.367-.889 16.411 6.478 20.2z" fill="#eeeeee" data-original="#000000" class=""></path><path d="m455.123 125.663c-7.367 3.789-10.267 12.832-6.478 20.2 2.659 5.172 7.909 8.143 13.351 8.143 2.308 0 4.652-.535 6.847-1.664l34.998-18c7.367-3.789 10.267-12.832 6.478-20.2-3.787-7.366-12.828-10.269-20.198-6.479z" fill="#eeeeee" data-original="#000000" class=""></path><path d="m61.532 429.259-39.998 39c-5.931 5.784-6.051 15.28-.269 21.212 5.788 5.935 15.284 6.048 21.211.269l39.998-39c5.931-5.784 6.051-15.28.269-21.212-5.785-5.932-15.281-6.051-21.211-.269z" fill="#eeeeee" data-original="#000000" class=""></path><path d="m145.859 448.66c-7.365-3.788-16.41-.888-20.199 6.479l-17.999 35c-3.788 7.367-.888 16.411 6.479 20.2 7.213 3.753 16.394.961 20.199-6.479l17.999-35c3.788-7.368.888-16.412-6.479-20.2z" fill="#eeeeee" data-original="#000000" class=""></path><path d="m56.864 386.339c7.367-3.789 10.267-12.832 6.479-20.2-3.788-7.367-12.831-10.267-20.199-6.479l-34.998 18c-7.367 3.789-10.267 12.832-6.479 20.2 3.805 7.44 12.985 10.232 20.199 6.479z" fill="#eeeeee" data-original="#000000" class=""></path><path d="m450.455 82.743 39.998-39c5.931-5.784 6.051-15.28.269-21.212-5.784-5.931-15.28-6.051-21.211-.269l-39.998 39c-5.931 5.784-6.051 15.28-.269 21.212 6.399 6.342 16.196 5.661 21.211.269z" fill="#eeeeee" data-original="#000000" class=""></path><path d="m373.094 290.93c-3.829 21.48-24.317 37.07-48.695 37.07-19.738 0-38.266-7.96-50.835-21.83-5.569-6.14-5.1-15.62 1.04-21.19 6.139-5.56 15.619-5.09 21.188 1.05 6.789 7.49 17.478 11.97 28.607 11.97 10.619 0 18.088-6.28 19.168-12.35 1.45-8.13-10.709-13.29-14.469-14.68-14.009-5.17-26.927-10.7-31.837-12.84-3.38-1.47-6.379-3.37-8.909-5.63-9.969-8.92-14.329-22.699-11.379-35.969 3.18-14.32 14.049-25.58 29.057-30.099 31.517-9.5 57.455 11.89 58.544 12.81 0 0 9.132 7.14 4.139 17.844-1.34 2.873-3.524 5.314-6.266 6.906-9.115 5.291-17.171-1.79-17.171-1.79s-14.789-11.81-30.597-7.04c-6.219 1.87-7.949 5.74-8.419 7.88-.59 3.05.19 6.17 2.98 7.59 4.67 2.04 16.958 7.3 30.237 12.2 29.198 10.759 36.507 31.899 33.617 48.098z" fill="#eeeeee" data-original="#000000" class=""></path></g></g></svg>