<svg xmlns="http://www.w3.org/2000/svg" version="1.1" xmlns:xlink="http://www.w3.org/1999/xlink" xmlns:svgjs="http://svgjs.com/svgjs" width="512" height="512" x="0" y="0" viewBox="0 0 512 512" style="enable-background:new 0 0 512 512" xml:space="preserve" class=""><g><g xmlns="http://www.w3.org/2000/svg"><path d="m368.467 417.733h-224.934c-43.708 0-79.267 35.559-79.267 79.267 0 8.284 6.716 15 15 15h353.467c8.284 0 15-6.716 15-15 0-43.708-35.558-79.267-79.266-79.267z" fill="#5f5a50" data-original="#5f5a50" class=""></path><path d="m447.733 497c0-43.708-35.559-79.267-79.267-79.267h-112.466v94.267h176.733c8.285 0 15-6.716 15-15z" fill="#37372d" data-original="#37372d" class=""></path><path d="m256 512c-43.715 0-79.267-35.552-79.267-79.25 0-8.284 6.716-15.016 15-15.016h128.533c8.284 0 15 6.716 15 15 .001 43.707-35.558 79.266-79.266 79.266z" fill="#00e58a" data-original="#00e58a" class=""></path><path d="m335.267 432.733c0-8.284-6.716-15-15-15h-64.267v94.267c43.708 0 79.267-35.559 79.267-79.267z" fill="#00b489" data-original="#00b489" class=""></path><path d="m79.267 351.333h-16.067c-34.911 0-63.2-28.243-63.2-63.2 0-34.911 28.243-63.2 63.2-63.2h16.066c8.284 0 15 6.716 15 15v96.4c.001 8.285-6.715 15-14.999 15z" fill="#00e58a" data-original="#00e58a" class=""></path><path d="m448.8 351.333h-16.066c-8.284 0-15-6.716-15-15v-96.4c0-8.284 6.716-15 15-15h16.066c34.911 0 63.2 28.243 63.2 63.2 0 34.911-28.243 63.2-63.2 63.2z" fill="#00b489" data-original="#00b489" class=""></path><path d="m262.74 18.221c-14.195-15.503-38.585-21.933-60.683-16.008-17.101 4.579-31.687 16.247-39.519 30.798-16.502-.496-33.915 6.301-46.43 18.824-12.527 12.519-19.327 29.92-18.831 46.436-14.551 7.832-26.218 22.417-30.796 39.513-5.929 22.106.504 46.496 16.007 60.691 14.195 15.503 38.585 21.934 60.684 16.008 17.101-4.579 31.687-16.247 39.519-30.798 16.502.496 33.915-6.301 46.43-18.824 12.527-12.519 19.327-29.92 18.831-46.436 14.551-7.832 26.218-22.417 30.796-39.513 5.928-22.106-.505-46.496-16.008-60.691z" fill="#ea71ec" data-original="#ea71ec" class=""></path><path d="m336.333 447.733h-160.666c-61.427 0-111.4-49.974-111.4-111.4v-144.6c0-8.284 6.716-15 15-15 89.179 0 161.733-72.553 161.733-161.733 0-8.284 6.716-15 15-15 105.723 0 191.733 86.011 191.733 191.733v144.6c0 61.427-49.973 111.4-111.4 111.4z" fill="#a7ff8e" data-original="#a7ff8e" class=""></path><path d="m447.733 336.333v-144.6c0-105.722-86.01-191.733-191.733-191.733v447.733h80.333c61.427 0 111.4-49.973 111.4-111.4z" fill="#00e58a" data-original="#00e58a" class=""></path><path d="m336.333 383.467h-16.066c-8.284 0-15-6.716-15-15 0-27.166-22.101-49.267-49.267-49.267s-49.267 22.101-49.267 49.267c0 8.284-6.716 15-15 15h-16.066c-25.744 0-47.134-20.797-47.134-47.133v-32.134c0-43.708 35.559-79.267 79.267-79.267h96.4c43.708 0 79.267 35.559 79.267 79.267v32.133c0 25.744-20.797 47.134-47.134 47.134z" fill="#37372d" data-original="#37372d" class=""></path><path d="m305.267 368.467c0 8.284 6.716 15 15 15h16.066c26.337 0 47.134-21.39 47.134-47.133v-32.134c0-43.708-35.559-79.267-79.267-79.267h-48.2v94.267c27.166 0 49.267 22.101 49.267 49.267z" fill="#0f140a" data-original="#0f140a" class=""></path><path d="m320.267 383.467h-128.534c-8.284 0-15-6.716-15-15 0-43.708 35.559-79.267 79.267-79.267s79.267 35.559 79.267 79.267c0 8.284-6.716 15-15 15z" fill="#ff7382" data-original="#ff7382" class=""></path><path d="m335.267 368.467c0-43.708-35.559-79.267-79.267-79.267v94.267h64.267c8.284 0 15-6.716 15-15z" fill="#ff0050" data-original="#ff0050" class=""></path><path d="m320.267 190.667c-8.284 0-15-6.716-15-15v-16.067c0-8.284 6.716-15 15-15s15 6.716 15 15v16.066c0 8.285-6.716 15.001-15 15.001z" fill="#0f140a" data-original="#0f140a" class=""></path><path d="m191.733 190.667c-8.284 0-15-6.716-15-15v-16.067c0-8.284 6.716-15 15-15s15 6.716 15 15v16.066c0 8.285-6.715 15.001-15 15.001z" fill="#37372d" data-original="#37372d" class=""></path><path d="m215.833 174.6h-48.199c-8.284 0-15-6.716-15-15s6.716-15 15-15h48.199c8.284 0 15 6.716 15 15s-6.716 15-15 15z" fill="#00b489" data-original="#00b489" class=""></path><path d="m344.366 174.6h-48.199c-8.284 0-15-6.716-15-15s6.716-15 15-15h48.199c8.284 0 15 6.716 15 15s-6.716 15-15 15z" fill="#028c79" data-original="#028c79" class=""></path></g></g></svg>